<svg width="503" height="456" viewBox="0 0 503 456" fill="none" xmlns="http://www.w3.org/2000/svg">
<path d="M13 124.493C13 131.543 16.7487 138.096 22.8129 141.731L111.019 193.993C117.855 198.069 126.51 197.683 132.96 193.002L171.991 164.971L13 71.0191V124.493Z" fill="#080F1F"/>
<path d="M111.019 262.117L22.8129 314.435C16.7487 318.069 13 324.623 13 331.672V385.146L171.991 291.139L132.96 263.108C126.51 258.427 117.855 258.097 111.019 262.117Z" fill="#080F1F"/>
<path d="M488.54 224.778L278.059 104.062L119.068 10V63.4743C119.068 70.5234 122.816 77.0769 128.88 80.7116L217.086 132.974C223.922 137.05 232.577 136.664 239.028 131.983L277.838 104.062V226.375C277.507 225.88 277.066 225.439 276.515 225.109L171.991 164.916V291.029L276.515 232.323C277.121 231.993 277.562 231.552 277.893 231.056V351.938L239.083 324.017C232.577 319.336 223.977 319.005 217.141 323.026L128.936 375.288C122.871 378.923 119.123 385.477 119.123 392.526V446L278.114 351.993L488.54 232.984C491.792 231.167 491.848 226.486 488.54 224.613V224.778ZM367.202 179.84V277.537L281.311 228.083L367.202 179.84Z" fill="#080F1F"/>
</svg>
