<svg width="1440" height="355" viewBox="0 0 1440 355" fill="none" xmlns="http://www.w3.org/2000/svg">
<path d="M0 0H1440V355H0V0Z" fill="#0C50D5"/>
<mask id="mask0_4039_350" style="mask-type:alpha" maskUnits="userSpaceOnUse" x="0" y="0" width="1440" height="355">
<path d="M0 0H1440V355H0V0Z" fill="#0C50D5"/>
</mask>
<g mask="url(#mask0_4039_350)">
<g opacity="0.05">
<path d="M-228.387 227.713C-228.387 232.218 -226.053 236.344 -222.218 238.66L-166.867 271.88C-162.574 274.448 -157.156 274.238 -153.071 271.248L-128.564 253.438L-228.387 193.735V227.713Z" fill="white"/>
<path d="M-166.867 315.078L-222.218 348.298C-226.053 350.572 -228.387 354.74 -228.387 359.245V393.223L-128.564 333.52L-153.071 315.71C-157.156 312.762 -162.533 312.51 -166.867 315.078Z" fill="white"/>
<path d="M70.2067 291.374L-61.9179 214.703L-161.782 155V188.978C-161.782 193.483 -159.448 197.609 -155.614 199.925L-100.263 233.144C-95.9702 235.713 -90.5519 235.502 -86.4673 232.513L-62.0846 214.787V292.468C-62.293 292.174 -62.5431 291.879 -62.9182 291.668L-128.564 253.438V333.52L-62.9599 296.258C-62.5848 296.047 -62.3347 295.753 -62.0846 295.458V372.213L-86.4673 354.487C-90.5519 351.54 -95.9285 351.287 -100.263 353.856L-155.614 387.075C-159.448 389.349 -161.782 393.517 -161.782 398.022V432L-61.9596 372.297L70.165 296.721C72.2073 295.542 72.2073 292.595 70.165 291.416L70.2067 291.374ZM-5.98375 262.827V324.888L-59.9173 293.479L-5.98375 262.827Z" fill="white"/>
<path d="M71.6968 227.713C71.6968 232.218 74.0308 236.344 77.8654 238.66L133.216 271.88C137.509 274.448 142.927 274.238 147.012 271.248L171.52 253.438L71.6968 193.735V227.713Z" fill="white"/>
<path d="M133.216 315.078L77.8654 348.298C74.0308 350.572 71.6968 354.74 71.6968 359.245V393.223L171.52 333.52L147.012 315.71C142.927 312.762 137.551 312.51 133.216 315.078Z" fill="white"/>
<path d="M370.29 291.374L238.165 214.703L138.301 155V188.978C138.301 193.483 140.635 197.609 144.47 199.925L199.82 233.144C204.113 235.713 209.532 235.502 213.616 232.513L237.999 214.787V292.468C237.79 292.174 237.54 291.879 237.165 291.668L171.52 253.438V333.52L237.123 296.258C237.499 296.047 237.749 295.753 237.999 295.458V372.213L213.616 354.487C209.532 351.54 204.155 351.287 199.82 353.856L144.47 387.075C140.635 389.349 138.301 393.517 138.301 398.022V432L238.124 372.297L370.248 296.721C372.291 295.542 372.291 292.595 370.248 291.416L370.29 291.374ZM294.1 262.827V324.888L240.166 293.479L294.1 262.827Z" fill="white"/>
<path d="M371.78 227.713C371.78 232.218 374.114 236.344 377.949 238.66L433.299 271.88C437.592 274.448 443.011 274.238 447.095 271.248L471.603 253.438L371.78 193.735V227.713Z" fill="white"/>
<path d="M433.299 315.078L377.949 348.298C374.114 350.572 371.78 354.74 371.78 359.245V393.223L471.603 333.52L447.095 315.71C443.011 312.762 437.634 312.51 433.299 315.078Z" fill="white"/>
<path d="M670.373 291.374L538.249 214.703L438.384 155V188.978C438.384 193.483 440.718 197.609 444.553 199.925L499.903 233.144C504.196 235.713 509.615 235.502 513.699 232.513L538.082 214.787V292.468C537.874 292.174 537.623 291.879 537.248 291.668L471.603 253.438V333.52L537.207 296.258C537.582 296.047 537.832 295.753 538.082 295.458V372.213L513.699 354.487C509.615 351.54 504.238 351.287 499.903 353.856L444.553 387.075C440.718 389.349 438.384 393.517 438.384 398.022V432L538.207 372.297L670.332 296.721C672.374 295.542 672.374 292.595 670.332 291.416L670.373 291.374ZM594.183 262.827V324.888L540.249 293.479L594.183 262.827Z" fill="white"/>
<path d="M671.864 227.713C671.864 232.218 674.198 236.344 678.032 238.66L733.383 271.88C737.676 274.448 743.094 274.238 747.179 271.248L771.686 253.438L671.864 193.735V227.713Z" fill="white"/>
<path d="M733.383 315.078L678.032 348.298C674.198 350.572 671.864 354.74 671.864 359.245V393.223L771.686 333.52L747.179 315.71C743.094 312.762 737.717 312.51 733.383 315.078Z" fill="white"/>
<path d="M970.457 291.374L838.332 214.703L738.468 155V188.978C738.468 193.483 740.802 197.609 744.636 199.925L799.987 233.144C804.28 235.713 809.698 235.502 813.783 232.513L838.165 214.787V292.468C837.957 292.174 837.707 291.879 837.332 291.668L771.686 253.438V333.52L837.29 296.258C837.665 296.047 837.915 295.753 838.165 295.458V372.213L813.783 354.487C809.698 351.54 804.322 351.287 799.987 353.856L744.636 387.075C740.802 389.349 738.468 393.517 738.468 398.022V432L838.291 372.297L970.415 296.721C972.457 295.542 972.457 292.595 970.415 291.416L970.457 291.374ZM894.266 262.827V324.888L840.333 293.479L894.266 262.827Z" fill="white"/>
<path d="M971.947 227.713C971.947 232.218 974.281 236.344 978.116 238.66L1033.47 271.88C1037.76 274.448 1043.18 274.238 1047.26 271.248L1071.77 253.438L971.947 193.735V227.713Z" fill="white"/>
<path d="M1033.47 315.078L978.116 348.298C974.281 350.572 971.947 354.74 971.947 359.245V393.223L1071.77 333.52L1047.26 315.71C1043.18 312.762 1037.8 312.51 1033.47 315.078Z" fill="white"/>
<path d="M1270.54 291.374L1138.42 214.703L1038.55 155V188.978C1038.55 193.483 1040.89 197.609 1044.72 199.925L1100.07 233.144C1104.36 235.713 1109.78 235.502 1113.87 232.513L1138.25 214.787V292.468C1138.04 292.174 1137.79 291.879 1137.42 291.668L1071.77 253.438V333.52L1137.37 296.258C1137.75 296.047 1138 295.753 1138.25 295.458V372.213L1113.87 354.487C1109.78 351.54 1104.41 351.287 1100.07 353.856L1044.72 387.075C1040.89 389.349 1038.55 393.517 1038.55 398.022V432L1138.37 372.297L1270.5 296.721C1272.54 295.542 1272.54 292.595 1270.5 291.416L1270.54 291.374ZM1194.35 262.827V324.888L1140.42 293.479L1194.35 262.827Z" fill="white"/>
<path d="M1272.03 227.713C1272.03 232.218 1274.36 236.344 1278.2 238.66L1333.55 271.88C1337.84 274.448 1343.26 274.238 1347.35 271.248L1371.85 253.438L1272.03 193.735V227.713Z" fill="white"/>
<path d="M1333.55 315.078L1278.2 348.298C1274.36 350.572 1272.03 354.74 1272.03 359.245V393.223L1371.85 333.52L1347.35 315.71C1343.26 312.762 1337.88 312.51 1333.55 315.078Z" fill="white"/>
<path d="M1570.62 291.374L1438.5 214.703L1338.63 155V188.978C1338.63 193.483 1340.97 197.609 1344.8 199.925L1400.15 233.144C1404.45 235.713 1409.86 235.502 1413.95 232.513L1438.33 214.787V292.468C1438.12 292.174 1437.87 291.879 1437.5 291.668L1371.85 253.438V333.52L1437.46 296.258C1437.83 296.047 1438.08 295.753 1438.33 295.458V372.213L1413.95 354.487C1409.86 351.54 1404.49 351.287 1400.15 353.856L1344.8 387.075C1340.97 389.349 1338.63 393.517 1338.63 398.022V432L1438.46 372.297L1570.58 296.721C1572.62 295.542 1572.62 292.595 1570.58 291.416L1570.62 291.374ZM1494.43 262.827V324.888L1440.5 293.479L1494.43 262.827Z" fill="white"/>
<path d="M-78.8334 -49.287C-78.8334 -44.7819 -76.4994 -40.6557 -72.6648 -38.34L-17.3142 -5.12022C-13.0212 -2.5519 -7.60284 -2.76243 -3.51823 -5.75179L20.9894 -23.5616L-78.8334 -83.2646V-49.287Z" fill="white"/>
<path d="M-17.3142 38.0781L-72.6648 71.2979C-76.4994 73.5715 -78.8334 77.7397 -78.8334 82.2448V116.223L20.9894 56.5195L-3.51823 38.7097C-7.60284 35.7624 -12.9795 35.5098 -17.3142 38.0781Z" fill="white"/>
<path d="M219.76 14.3738L87.6353 -62.297L-12.2293 -122V-88.0223C-12.2293 -83.5173 -9.89523 -79.3911 -6.0607 -77.0754L49.2899 -43.8556C53.5829 -41.2873 59.0013 -41.4978 63.0859 -44.4872L87.4685 -62.2128V15.4685C87.2601 15.1737 87.0101 14.879 86.6349 14.6685L20.9894 -23.5616V56.5195L86.5933 19.2578C86.9684 19.0473 87.2185 18.7525 87.4685 18.4578V95.2128L63.0859 77.4872C59.0013 74.5399 53.6246 74.2873 49.2899 76.8556L-6.0607 110.075C-9.89523 112.349 -12.2293 116.517 -12.2293 121.022V155L87.5936 95.297L219.718 19.7209C221.76 18.542 221.76 15.5948 219.718 14.4159L219.76 14.3738ZM143.569 -14.1725V47.8883L89.6359 16.4789L143.569 -14.1725Z" fill="white"/>
<path d="M221.25 -49.287C221.25 -44.7819 223.584 -40.6557 227.419 -38.34L282.769 -5.12022C287.062 -2.5519 292.481 -2.76243 296.565 -5.75179L321.073 -23.5616L221.25 -83.2646V-49.287Z" fill="white"/>
<path d="M282.769 38.0781L227.419 71.2979C223.584 73.5715 221.25 77.7397 221.25 82.2448V116.223L321.073 56.5195L296.565 38.7097C292.481 35.7624 287.104 35.5098 282.769 38.0781Z" fill="white"/>
<path d="M519.843 14.3738L387.719 -62.297L287.854 -122V-88.0223C287.854 -83.5173 290.188 -79.3911 294.023 -77.0754L349.373 -43.8556C353.666 -41.2873 359.085 -41.4978 363.169 -44.4872L387.552 -62.2128V15.4685C387.344 15.1737 387.094 14.879 386.718 14.6685L321.073 -23.5616V56.5195L386.677 19.2578C387.052 19.0473 387.302 18.7525 387.552 18.4578V95.2128L363.169 77.4872C359.085 74.5399 353.708 74.2873 349.373 76.8556L294.023 110.075C290.188 112.349 287.854 116.517 287.854 121.022V155L387.677 95.297L519.802 19.7209C521.844 18.542 521.844 15.5948 519.802 14.4159L519.843 14.3738ZM443.653 -14.1725V47.8883L389.719 16.4789L443.653 -14.1725Z" fill="white"/>
<path d="M521.333 -49.287C521.333 -44.7819 523.667 -40.6557 527.502 -38.34L582.853 -5.12022C587.146 -2.5519 592.564 -2.76243 596.649 -5.75179L621.156 -23.5616L521.333 -83.2646V-49.287Z" fill="white"/>
<path d="M582.853 38.0781L527.502 71.2979C523.667 73.5715 521.333 77.7397 521.333 82.2448V116.223L621.156 56.5195L596.649 38.7097C592.564 35.7624 587.187 35.5098 582.853 38.0781Z" fill="white"/>
<path d="M819.927 14.3738L687.802 -62.297L587.937 -122V-88.0223C587.937 -83.5173 590.272 -79.3911 594.106 -77.0754L649.457 -43.8556C653.75 -41.2873 659.168 -41.4978 663.253 -44.4872L687.635 -62.2128V15.4685C687.427 15.1737 687.177 14.879 686.802 14.6685L621.156 -23.5616V56.5195L686.76 19.2578C687.135 19.0473 687.385 18.7525 687.635 18.4578V95.2128L663.253 77.4872C659.168 74.5399 653.791 74.2873 649.457 76.8556L594.106 110.075C590.272 112.349 587.937 116.517 587.937 121.022V155L687.76 95.297L819.885 19.7209C821.927 18.542 821.927 15.5948 819.885 14.4159L819.927 14.3738ZM743.736 -14.1725V47.8883L689.803 16.4789L743.736 -14.1725Z" fill="white"/>
<path d="M821.417 -49.287C821.417 -44.7819 823.751 -40.6557 827.585 -38.34L882.936 -5.12022C887.229 -2.5519 892.647 -2.76243 896.732 -5.75179L921.24 -23.5616L821.417 -83.2646V-49.287Z" fill="white"/>
<path d="M882.936 38.0781L827.585 71.2979C823.751 73.5715 821.417 77.7397 821.417 82.2448V116.223L921.24 56.5195L896.732 38.7097C892.647 35.7624 887.271 35.5098 882.936 38.0781Z" fill="white"/>
<path d="M1120.01 14.3738L987.885 -62.297L888.021 -122V-88.0223C888.021 -83.5173 890.355 -79.3911 894.189 -77.0754L949.54 -43.8556C953.833 -41.2873 959.251 -41.4978 963.336 -44.4872L987.719 -62.2128V15.4685C987.51 15.1737 987.26 14.879 986.885 14.6685L921.24 -23.5616V56.5195L986.843 19.2578C987.218 19.0473 987.469 18.7525 987.719 18.4578V95.2128L963.336 77.4872C959.251 74.5399 953.875 74.2873 949.54 76.8556L894.189 110.075C890.355 112.349 888.021 116.517 888.021 121.022V155L987.844 95.297L1119.97 19.7209C1122.01 18.542 1122.01 15.5948 1119.97 14.4159L1120.01 14.3738ZM1043.82 -14.1725V47.8883L989.886 16.4789L1043.82 -14.1725Z" fill="white"/>
<path d="M1121.5 -49.287C1121.5 -44.7819 1123.83 -40.6557 1127.67 -38.34L1183.02 -5.12022C1187.31 -2.5519 1192.73 -2.76243 1196.81 -5.75179L1221.32 -23.5616L1121.5 -83.2646V-49.287Z" fill="white"/>
<path d="M1183.02 38.0781L1127.67 71.2979C1123.83 73.5715 1121.5 77.7397 1121.5 82.2448V116.223L1221.32 56.5195L1196.81 38.7097C1192.73 35.7624 1187.35 35.5098 1183.02 38.0781Z" fill="white"/>
<path d="M1420.09 14.3738L1287.97 -62.297L1188.1 -122V-88.0223C1188.1 -83.5173 1190.44 -79.3911 1194.27 -77.0754L1249.62 -43.8556C1253.92 -41.2873 1259.33 -41.4978 1263.42 -44.4872L1287.8 -62.2128V15.4685C1287.59 15.1737 1287.34 14.879 1286.97 14.6685L1221.32 -23.5616V56.5195L1286.93 19.2578C1287.3 19.0473 1287.55 18.7525 1287.8 18.4578V95.2128L1263.42 77.4872C1259.33 74.5399 1253.96 74.2873 1249.62 76.8556L1194.27 110.075C1190.44 112.349 1188.1 116.517 1188.1 121.022V155L1287.93 95.297L1420.05 19.7209C1422.09 18.542 1422.09 15.5948 1420.05 14.4159L1420.09 14.3738ZM1343.9 -14.1725V47.8883L1289.97 16.4789L1343.9 -14.1725Z" fill="white"/>
<path d="M1421.58 -49.287C1421.58 -44.7819 1423.92 -40.6557 1427.75 -38.34L1483.1 -5.12022C1487.4 -2.5519 1492.81 -2.76243 1496.9 -5.75179L1521.41 -23.5616L1421.58 -83.2646V-49.287Z" fill="white"/>
<path d="M1483.1 38.0781L1427.75 71.2979C1423.92 73.5715 1421.58 77.7397 1421.58 82.2448V116.223L1521.41 56.5195L1496.9 38.7097C1492.81 35.7624 1487.44 35.5098 1483.1 38.0781Z" fill="white"/>
<path d="M1720.18 14.3738L1588.05 -62.297L1488.19 -122V-88.0223C1488.19 -83.5173 1490.52 -79.3911 1494.36 -77.0754L1549.71 -43.8556C1554 -41.2873 1559.42 -41.4978 1563.5 -44.4872L1587.89 -62.2128V15.4685C1587.68 15.1737 1587.43 14.879 1587.05 14.6685L1521.41 -23.5616V56.5195L1587.01 19.2578C1587.39 19.0473 1587.64 18.7525 1587.89 18.4578V95.2128L1563.5 77.4872C1559.42 74.5399 1554.04 74.2873 1549.71 76.8556L1494.36 110.075C1490.52 112.349 1488.19 116.517 1488.19 121.022V155L1588.01 95.297L1720.13 19.7209C1722.18 18.542 1722.18 15.5948 1720.13 14.4159L1720.18 14.3738ZM1643.99 -14.1725V47.8883L1590.05 16.4789L1643.99 -14.1725Z" fill="white"/>
</g>
</g>
</svg>
