<svg width="1438" height="563" viewBox="0 0 1438 563" fill="none" xmlns="http://www.w3.org/2000/svg">
<rect y="2" width="720" height="561" fill="#EDF2F4"/>
<rect x="720" y="2" width="720" height="561" fill="#080F1F"/>
<g opacity="0.3">
<mask id="mask0_4039_350" style="mask-type:alpha" maskUnits="userSpaceOnUse" x="770" y="0" width="670" height="561">
<rect x="770" width="670" height="561" rx="5" fill="#0C50D5"/>
</mask>
<g mask="url(#mask0_4039_350)">
<g opacity="0.5">
<path d="M821 134.667C821 145.168 826.359 154.786 835.163 160.184L962.25 237.618C972.107 243.605 984.547 243.114 993.926 236.146L1050.2 194.632L821 55.4652V134.667Z" fill="#3F8CFF"/>
<path d="M962.25 338.313L835.163 415.748C826.359 421.047 821 430.763 821 441.265V520.466L1050.2 381.299L993.926 339.785C984.547 332.915 972.202 332.326 962.25 338.313Z" fill="#3F8CFF"/>
<path d="M1506.58 283.058L1203.22 104.34L973.925 -34.8262V44.3751C973.925 54.8764 979.284 64.4944 988.088 69.8922L1115.17 147.327C1125.03 153.314 1137.47 152.823 1146.85 145.855L1202.83 104.537V285.61C1202.36 284.923 1201.78 284.236 1200.92 283.745L1050.2 194.632V381.299L1200.82 294.443C1201.69 293.952 1202.26 293.265 1202.83 292.578V471.493L1146.85 430.175C1137.47 423.305 1125.13 422.716 1115.17 428.702L988.088 506.137C979.284 511.437 973.925 521.153 973.925 531.654V610.856L1203.12 471.689L1506.48 295.523C1511.17 292.775 1511.17 285.905 1506.48 283.157L1506.58 283.058ZM1331.64 216.518V361.18L1207.81 287.966L1331.64 216.518Z" fill="#3F8CFF"/>
</g>
</g>
</g>
</svg>
