<svg xmlns="http://www.w3.org/2000/svg" width="1440" height="500" viewBox="0 0 1440 500" fill="none"><rect width="1440" height="500" fill="#080F1F"></rect><mask id="mask0_4039_350" style="mask-type:alpha" maskUnits="userSpaceOnUse" x="0" y="0" width="1440" height="500"><rect width="1440" height="500" fill="#080F1F"></rect></mask><g mask="url(#mask0_4039_350)"><g opacity="0.15"><path d="M-267.501 75.2197C-267.501 82.1725 -263.899 88.5405 -257.981 92.1144L-172.557 143.383C-165.932 147.347 -157.569 147.022 -151.265 142.408L-113.442 114.922L-267.501 22.7812V75.2197Z" fill="#0C50D5"></path><path d="M-172.557 210.052L-257.981 261.321C-263.899 264.83 -267.501 271.263 -267.501 278.216V330.654L-113.442 238.513L-151.265 211.027C-157.569 206.478 -165.867 206.088 -172.557 210.052Z" fill="#0C50D5"></path><path d="M193.324 173.469L-10.5863 55.141L-164.709 -36.9999V15.4386C-164.709 22.3914 -161.107 28.7594 -155.189 32.3332L-69.7654 83.602C-63.1399 87.5658 -54.7777 87.2409 -48.4738 82.6273L-10.8436 55.271V175.158C-11.1652 174.703 -11.5512 174.248 -12.1301 173.924L-113.442 114.922V238.513L-12.1944 181.006C-11.6155 180.681 -11.2295 180.227 -10.8436 179.772V298.229L-48.4738 270.873C-54.7777 266.324 -63.0756 265.934 -69.7654 269.898L-155.189 321.167C-161.107 324.676 -164.709 331.109 -164.709 338.062V390.5L-10.6506 298.359L193.26 181.721C196.412 179.902 196.412 175.353 193.26 173.534L193.324 173.469ZM75.7381 129.413V225.192L-7.49869 176.718L75.7381 129.413Z" fill="#0C50D5"></path><path d="M195.624 75.2197C195.624 82.1725 199.226 88.5405 205.144 92.1144L290.568 143.383C297.193 147.347 305.556 147.022 311.86 142.408L349.683 114.922L195.624 22.7812V75.2197Z" fill="#0C50D5"></path><path d="M290.568 210.052L205.144 261.321C199.226 264.83 195.624 271.263 195.624 278.216V330.654L349.683 238.513L311.86 211.027C305.556 206.478 297.258 206.088 290.568 210.052Z" fill="#0C50D5"></path><path d="M656.449 173.469L452.539 55.141L298.416 -36.9999V15.4386C298.416 22.3914 302.018 28.7594 307.936 32.3332L393.36 83.602C399.985 87.5658 408.347 87.2409 414.651 82.6273L452.281 55.271V175.158C451.96 174.703 451.574 174.248 450.995 173.924L349.683 114.922V238.513L450.931 181.006C451.51 180.681 451.895 180.227 452.281 179.772V298.229L414.651 270.873C408.347 266.324 400.049 265.934 393.36 269.898L307.936 321.167C302.018 324.676 298.416 331.109 298.416 338.062V390.5L452.474 298.359L656.385 181.721C659.537 179.902 659.537 175.353 656.385 173.534L656.449 173.469ZM538.863 129.413V225.192L455.626 176.718L538.863 129.413Z" fill="#0C50D5"></path><path d="M658.749 75.2197C658.749 82.1725 662.351 88.5405 668.269 92.1144L753.693 143.383C760.318 147.347 768.681 147.022 774.985 142.408L812.808 114.922L658.749 22.7812V75.2197Z" fill="#0C50D5"></path><path d="M753.693 210.052L668.269 261.321C662.351 264.83 658.749 271.263 658.749 278.216V330.654L812.808 238.513L774.985 211.027C768.681 206.478 760.383 206.088 753.693 210.052Z" fill="#0C50D5"></path><path d="M1119.57 173.469L915.664 55.141L761.541 -36.9999V15.4386C761.541 22.3914 765.143 28.7594 771.061 32.3332L856.485 83.602C863.11 87.5658 871.472 87.2409 877.776 82.6273L915.406 55.271V175.158C915.085 174.703 914.699 174.248 914.12 173.924L812.808 114.922V238.513L914.056 181.006C914.635 180.681 915.02 180.227 915.406 179.772V298.229L877.776 270.873C871.472 266.324 863.174 265.934 856.485 269.898L771.061 321.167C765.143 324.676 761.541 331.109 761.541 338.062V390.5L915.599 298.359L1119.51 181.721C1122.66 179.902 1122.66 175.353 1119.51 173.534L1119.57 173.469ZM1001.99 129.413V225.192L918.751 176.718L1001.99 129.413Z" fill="#0C50D5"></path><path d="M1121.87 75.2197C1121.87 82.1725 1125.48 88.5405 1131.39 92.1144L1216.82 143.383C1223.44 147.347 1231.81 147.022 1238.11 142.408L1275.93 114.922L1121.87 22.7812V75.2197Z" fill="#0C50D5"></path><path d="M1216.82 210.052L1131.39 261.321C1125.48 264.83 1121.87 271.263 1121.87 278.216V330.654L1275.93 238.513L1238.11 211.027C1231.81 206.478 1223.51 206.088 1216.82 210.052Z" fill="#0C50D5"></path><path d="M1582.7 173.469L1378.79 55.141L1224.67 -36.9999V15.4386C1224.67 22.3914 1228.27 28.7594 1234.19 32.3332L1319.61 83.602C1326.24 87.5658 1334.6 87.2409 1340.9 82.6273L1378.53 55.271V175.158C1378.21 174.703 1377.82 174.248 1377.24 173.924L1275.93 114.922V238.513L1377.18 181.006C1377.76 180.681 1378.15 180.227 1378.53 179.772V298.229L1340.9 270.873C1334.6 266.324 1326.3 265.934 1319.61 269.898L1234.19 321.167C1228.27 324.676 1224.67 331.109 1224.67 338.062V390.5L1378.72 298.359L1582.64 181.721C1585.79 179.902 1585.79 175.353 1582.64 173.534L1582.7 173.469ZM1465.11 129.413V225.192L1381.88 176.718L1465.11 129.413Z" fill="#0C50D5"></path><path d="M-35.9385 502.72C-35.9385 509.672 -32.3363 516.04 -26.4184 519.614L59.0055 570.883C65.631 574.847 73.9932 574.522 80.2971 569.908L118.12 542.422L-35.9385 450.281V502.72Z" fill="#0C50D5"></path><path d="M59.0055 637.552L-26.4184 688.821C-32.3363 692.33 -35.9385 698.763 -35.9385 705.715V758.154L118.12 666.013L80.2971 638.527C73.9932 633.978 65.6953 633.588 59.0055 637.552Z" fill="#0C50D5"></path><path d="M424.887 600.969L220.976 482.641L66.8531 390.5V442.938C66.8531 449.891 70.4553 456.259 76.3732 459.833L161.797 511.102C168.423 515.066 176.785 514.741 183.089 510.127L220.719 482.771V602.658C220.397 602.203 220.011 601.748 219.432 601.423L118.12 542.422V666.013L219.368 608.506C219.947 608.181 220.333 607.726 220.719 607.272V725.729L183.089 698.373C176.785 693.824 168.487 693.434 161.797 697.398L76.3732 748.667C70.4553 752.176 66.8531 758.609 66.8531 765.562V818L220.912 725.859L424.823 609.221C427.975 607.402 427.975 602.853 424.823 601.034L424.887 600.969ZM307.301 556.912V652.692L224.064 604.218L307.301 556.912Z" fill="#0C50D5"></path><path d="M427.187 502.72C427.187 509.672 430.789 516.04 436.707 519.614L522.13 570.883C528.756 574.847 537.118 574.522 543.422 569.908L581.245 542.422L427.187 450.281V502.72Z" fill="#0C50D5"></path><path d="M522.13 637.552L436.707 688.821C430.789 692.33 427.187 698.763 427.187 705.715V758.154L581.245 666.013L543.422 638.527C537.118 633.978 528.82 633.588 522.13 637.552Z" fill="#0C50D5"></path><path d="M888.012 600.969L684.101 482.641L529.978 390.5V442.938C529.978 449.891 533.58 456.259 539.498 459.833L624.922 511.102C631.548 515.066 639.91 514.741 646.214 510.127L683.844 482.771V602.658C683.522 602.203 683.136 601.748 682.557 601.423L581.245 542.422V666.013L682.493 608.506C683.072 608.181 683.458 607.726 683.844 607.272V725.729L646.214 698.373C639.91 693.824 631.612 693.434 624.922 697.398L539.498 748.667C533.58 752.176 529.978 758.609 529.978 765.562V818L684.037 725.859L887.948 609.221C891.1 607.402 891.1 602.853 887.948 601.034L888.012 600.969ZM770.426 556.912V652.692L687.189 604.218L770.426 556.912Z" fill="#0C50D5"></path><path d="M890.312 502.72C890.312 509.672 893.914 516.04 899.832 519.614L985.255 570.883C991.881 574.847 1000.24 574.522 1006.55 569.908L1044.37 542.422L890.312 450.281V502.72Z" fill="#0C50D5"></path><path d="M985.255 637.552L899.832 688.821C893.914 692.33 890.312 698.763 890.312 705.715V758.154L1044.37 666.013L1006.55 638.527C1000.24 633.978 991.945 633.588 985.255 637.552Z" fill="#0C50D5"></path><path d="M1351.14 600.969L1147.23 482.641L993.103 390.5V442.938C993.103 449.891 996.705 456.259 1002.62 459.833L1088.05 511.102C1094.67 515.066 1103.03 514.741 1109.34 510.127L1146.97 482.771V602.658C1146.65 602.203 1146.26 601.748 1145.68 601.423L1044.37 542.422V666.013L1145.62 608.506C1146.2 608.181 1146.58 607.726 1146.97 607.272V725.729L1109.34 698.373C1103.03 693.824 1094.74 693.434 1088.05 697.398L1002.62 748.667C996.705 752.176 993.103 758.609 993.103 765.562V818L1147.16 725.859L1351.07 609.221C1354.22 607.402 1354.22 602.853 1351.07 601.034L1351.14 600.969ZM1233.55 556.912V652.692L1150.31 604.218L1233.55 556.912Z" fill="#0C50D5"></path><path d="M1353.44 502.72C1353.44 509.672 1357.04 516.04 1362.96 519.614L1448.38 570.883C1455.01 574.847 1463.37 574.522 1469.67 569.908L1507.5 542.422L1353.44 450.281V502.72Z" fill="#0C50D5"></path><path d="M1448.38 637.552L1362.96 688.821C1357.04 692.33 1353.44 698.763 1353.44 705.715V758.154L1507.5 666.013L1469.67 638.527C1463.37 633.978 1455.07 633.588 1448.38 637.552Z" fill="#0C50D5"></path><path d="M1814.26 600.969L1610.35 482.641L1456.23 390.5V442.938C1456.23 449.891 1459.83 456.259 1465.75 459.833L1551.17 511.102C1557.8 515.066 1566.16 514.741 1572.46 510.127L1610.09 482.771V602.658C1609.77 602.203 1609.39 601.748 1608.81 601.423L1507.5 542.422V666.013L1608.74 608.506C1609.32 608.181 1609.71 607.726 1610.09 607.272V725.729L1572.46 698.373C1566.16 693.824 1557.86 693.434 1551.17 697.398L1465.75 748.667C1459.83 752.176 1456.23 758.609 1456.23 765.562V818L1610.29 725.859L1814.2 609.221C1817.35 607.402 1817.35 602.853 1814.2 601.034L1814.26 600.969ZM1696.68 556.912V652.692L1613.44 604.218L1696.68 556.912Z" fill="#0C50D5"></path></g><rect width="1440" height="800" fill="url(#paint0_linear_4039_350)" fill-opacity="0.8"></rect></g><defs><linearGradient id="paint0_linear_4039_350" x1="813.5" y1="612" x2="811.5" y2="33" gradientUnits="userSpaceOnUse"><stop stop-color="#080F1F"></stop><stop offset="1" stop-color="#080F1F" stop-opacity="0"></stop></linearGradient></defs></svg>