<svg xmlns="http://www.w3.org/2000/svg" viewBox="0 0 160 200">
  <defs>
    <clipPath id="leye"><circle cx="57" cy="76" r="10"/></clipPath>
    <clipPath id="reye"><circle cx="100" cy="72" r="10"/></clipPath>

    <radialGradient id="iris-l" cx="60" cy="72" r="10" gradientUnits="userSpaceOnUse">
      <stop offset="0%"   stop-color="#F0B030"/>
      <stop offset="18%"  stop-color="#D08820"/>
      <stop offset="42%"  stop-color="#9A5810"/>
      <stop offset="72%"  stop-color="#4A2408"/>
      <stop offset="100%" stop-color="#180804"/>
    </radialGradient>
    <radialGradient id="iris-r" cx="103" cy="68" r="10" gradientUnits="userSpaceOnUse">
      <stop offset="0%"   stop-color="#F0B030"/>
      <stop offset="18%"  stop-color="#D08820"/>
      <stop offset="42%"  stop-color="#9A5810"/>
      <stop offset="72%"  stop-color="#4A2408"/>
      <stop offset="100%" stop-color="#180804"/>
    </radialGradient>

    <radialGradient id="fur-head" cx="80" cy="66" r="62" gradientUnits="userSpaceOnUse">
      <stop offset="0%"   stop-color="#C87840"/>
      <stop offset="32%"  stop-color="#9A5020"/>
      <stop offset="64%"  stop-color="#6A3010"/>
      <stop offset="100%" stop-color="#3A1808"/>
    </radialGradient>
    <radialGradient id="fur-muzzle" cx="80" cy="104" r="26" gradientUnits="userSpaceOnUse">
      <stop offset="0%"   stop-color="#EAC888"/>
      <stop offset="55%"  stop-color="#D4A060"/>
      <stop offset="100%" stop-color="#AA7038"/>
    </radialGradient>
    <radialGradient id="fur-body" cx="80" cy="166" r="56" gradientUnits="userSpaceOnUse">
      <stop offset="0%"   stop-color="#B06030"/>
      <stop offset="48%"  stop-color="#7A3818"/>
      <stop offset="100%" stop-color="#3A1808"/>
    </radialGradient>

    <filter id="fsoft"  x="-50%" y="-50%" width="200%" height="200%"><feGaussianBlur stdDeviation="3"/></filter>
    <filter id="fvsoft" x="-30%" y="-30%" width="160%" height="160%"><feGaussianBlur stdDeviation="1.8"/></filter>
  </defs>

  <!-- ══════════════════════════════════ -->
  <!--  EARS (behind head)               -->
  <!-- ══════════════════════════════════ -->

  <!-- Left floppy dog ear -->
  <path d="M38,48 Q16,58 13,90 Q10,118 21,134 Q31,144 44,141 Q56,137 58,114 Q60,88 51,63 Q45,51 38,48Z"
        fill="#2A1006" stroke="#180804" stroke-width="1"/>
  <path d="M38,50 Q18,60 15,91 Q12,117 23,132 Q33,142 44,139 Q55,135 56,113 Q58,87 49,64 Q44,53 38,50Z"
        fill="#6A3010"/>
  <path d="M38,53 Q21,63 18,93 Q15,115 25,130 Q34,140 44,137 Q54,133 55,112 Q56,87 47,66 Q43,56 38,53Z"
        fill="#A85020" opacity="0.9"/>
  <path d="M38,57 Q24,67 22,95 Q19,114 28,128 Q36,137 44,134 Q52,131 53,111 Q54,86 46,69 Q43,60 38,57Z"
        fill="#C06858" opacity="0.6"/>
  <!-- Fur strands on left floppy ear (flow downward) -->
  <path d="M18,68 C16,82 18,96 15,110 C12,124 16,135 14,142" stroke="#4A2010" stroke-width="2.5" fill="none" stroke-linecap="round"/>
  <path d="M22,61 C20,75 22,89 19,103 C16,117 20,128 18,136" stroke="#5C2C10" stroke-width="2.5" fill="none" stroke-linecap="round"/>
  <path d="M26,57 C24,71 26,85 23,99 C20,113 24,124 22,132" stroke="#7A3C18" stroke-width="2.2" fill="none" stroke-linecap="round"/>
  <path d="M31,54 C29,68 31,82 28,96 C25,110 29,121 27,129" stroke="#8A4820" stroke-width="2.2" fill="none" stroke-linecap="round"/>
  <path d="M36,52 C34,66 36,80 33,94 C30,108 34,119 32,127" stroke="#9A5028" stroke-width="2"   fill="none" stroke-linecap="round"/>
  <path d="M41,51 C40,65 42,79 40,93 C38,107 41,118 39,126" stroke="#B06030" stroke-width="1.8" fill="none" stroke-linecap="round" opacity="0.85"/>
  <path d="M47,52 C46,66 48,80 46,94 C44,108 47,119 45,127" stroke="#C07840" stroke-width="1.6" fill="none" stroke-linecap="round" opacity="0.7"/>

  <!-- Right floppy dog ear -->
  <path d="M122,48 Q144,58 147,90 Q150,118 139,134 Q129,144 116,141 Q104,137 102,114 Q100,88 109,63 Q115,51 122,48Z"
        fill="#2A1006" stroke="#180804" stroke-width="1"/>
  <path d="M122,50 Q142,60 145,91 Q148,117 137,132 Q127,142 116,139 Q105,135 104,113 Q102,87 111,64 Q116,53 122,50Z"
        fill="#6A3010"/>
  <path d="M122,53 Q139,63 142,93 Q145,115 135,130 Q126,140 116,137 Q106,133 105,112 Q104,87 113,66 Q117,56 122,53Z"
        fill="#A85020" opacity="0.9"/>
  <path d="M122,57 Q136,67 138,95 Q141,114 132,128 Q124,137 116,134 Q108,131 107,111 Q106,86 114,69 Q117,60 122,57Z"
        fill="#C06858" opacity="0.6"/>
  <!-- Fur strands on right floppy ear (flow downward) -->
  <path d="M142,68 C144,82 142,96 145,110 C148,124 144,135 146,142" stroke="#4A2010" stroke-width="2.5" fill="none" stroke-linecap="round"/>
  <path d="M138,61 C140,75 138,89 141,103 C144,117 140,128 142,136" stroke="#5C2C10" stroke-width="2.5" fill="none" stroke-linecap="round"/>
  <path d="M134,57 C136,71 134,85 137,99 C140,113 136,124 138,132" stroke="#7A3C18" stroke-width="2.2" fill="none" stroke-linecap="round"/>
  <path d="M129,54 C131,68 129,82 132,96 C135,110 131,121 133,129" stroke="#8A4820" stroke-width="2.2" fill="none" stroke-linecap="round"/>
  <path d="M124,52 C126,66 124,80 127,94 C130,108 126,119 128,127" stroke="#9A5028" stroke-width="2"   fill="none" stroke-linecap="round"/>
  <path d="M119,51 C120,65 118,79 120,93 C122,107 119,118 121,126" stroke="#B06030" stroke-width="1.8" fill="none" stroke-linecap="round" opacity="0.85"/>
  <path d="M113,52 C114,66 112,80 114,94 C116,108 113,119 115,127" stroke="#C07840" stroke-width="1.6" fill="none" stroke-linecap="round" opacity="0.7"/>

  <!-- ══════════════════════════════════ -->
  <!--  BODY                             -->
  <!-- ══════════════════════════════════ -->

  <path d="M22,152 Q20,200 80,200 Q140,200 138,152 Q118,136 80,134 Q42,136 22,152Z" fill="url(#fur-body)"/>
  <!-- Long flowing body fur strands -->
  <path d="M32,158 C30,170 34,182 32,193" stroke="#7A3818" stroke-width="2.5" fill="none" stroke-linecap="round"/>
  <path d="M44,153 C42,165 46,177 44,188" stroke="#8A4820" stroke-width="2.5" fill="none" stroke-linecap="round"/>
  <path d="M56,150 C54,162 58,174 56,185" stroke="#7A3818" stroke-width="2.5" fill="none" stroke-linecap="round"/>
  <path d="M68,148 C66,160 70,172 68,183" stroke="#9A5028" stroke-width="2.5" fill="none" stroke-linecap="round"/>
  <path d="M80,147 C78,159 82,171 80,182" stroke="#B06030" stroke-width="2.5" fill="none" stroke-linecap="round"/>
  <path d="M92,148 C90,160 94,172 92,183" stroke="#9A5028" stroke-width="2.5" fill="none" stroke-linecap="round"/>
  <path d="M104,150 C102,162 106,174 104,185" stroke="#7A3818" stroke-width="2.5" fill="none" stroke-linecap="round"/>
  <path d="M116,153 C114,165 118,177 116,188" stroke="#8A4820" stroke-width="2.5" fill="none" stroke-linecap="round"/>
  <path d="M128,158 C126,170 130,182 128,193" stroke="#7A3818" stroke-width="2.5" fill="none" stroke-linecap="round"/>

  <!-- ══════════════════════════════════ -->
  <!--  NECK                             -->
  <!-- ══════════════════════════════════ -->

  <path d="M66,140 Q63,157 62,164 Q80,168 98,164 Q97,157 94,140 Q88,145 80,145 Q72,145 66,140Z"
        fill="url(#fur-head)"/>
  <ellipse cx="65" cy="153" rx="6" ry="12" fill="#2A1006" opacity="0.18" filter="url(#fvsoft)"/>
  <ellipse cx="95" cy="153" rx="6" ry="12" fill="#2A1006" opacity="0.18" filter="url(#fvsoft)"/>
  <path d="M70,148 C69,155 71,162 70,167" stroke="#9A5028" stroke-width="1.8" fill="none" stroke-linecap="round"/>
  <path d="M75,146 C74,153 76,160 75,165" stroke="#B06030" stroke-width="1.8" fill="none" stroke-linecap="round"/>
  <path d="M80,145 C79,152 81,159 80,164" stroke="#C07840" stroke-width="1.8" fill="none" stroke-linecap="round"/>
  <path d="M85,146 C84,153 86,160 85,165" stroke="#B06030" stroke-width="1.8" fill="none" stroke-linecap="round"/>
  <path d="M90,148 C89,155 91,162 90,167" stroke="#9A5028" stroke-width="1.8" fill="none" stroke-linecap="round"/>

  <!-- ══════════════════════════════════ -->
  <!--  COLLAR + TAG                     -->
  <!-- ══════════════════════════════════ -->

  <path d="M28,147 Q80,136 132,147" stroke="#FFFFFF" stroke-width="9"   fill="none" stroke-linecap="round"/>
  <path d="M29,145 Q80,134 131,145" stroke="#F8F8F8" stroke-width="2.5" fill="none" stroke-linecap="round" opacity="0.65"/>
  <path d="M30,150 Q80,139 130,150" stroke="#DDDDDD" stroke-width="2"   fill="none" stroke-linecap="round" opacity="0.45"/>
  <line x1="80" y1="146" x2="80" y2="150" stroke="#AAAAAA" stroke-width="2"/>
  <!-- Badge -->
  <rect x="44" y="150" width="72" height="26" rx="6" fill="#093DB0"/>
  <rect x="44" y="150" width="72" height="26" rx="6" fill="#0C50D5"/>
  <rect x="44" y="150" width="72" height="26" rx="6" fill="none" stroke="#4090FF" stroke-width="0.8"/>
  <!-- GrowthPoint logo (GP chevron) -->
  <g transform="translate(47, 153.5) scale(0.055)" fill="#A4E322">
    <path d="M41 69.2069C41 72.3596 42.6686 75.2906 45.3678 76.9163L84.6286 100.291C87.6713 102.113 91.5238 101.941 94.3947 99.8473L111.768 87.3103L41 45.2906V69.2069Z"/>
    <path d="M84.6286 130.759L45.3678 154.158C42.6686 155.783 41 158.714 41 161.867V185.783L111.768 143.739L94.3947 131.202C91.5238 129.108 87.6713 128.961 84.6286 130.759Z"/>
    <path d="M252.665 114.059L158.979 60.069L88.2111 18V41.9163C88.2111 45.069 89.8797 48 92.5789 49.6256L131.84 73C134.882 74.8227 138.735 74.6502 141.606 72.5566L158.881 60.069V114.773C158.733 114.552 158.537 114.355 158.292 114.207L111.768 87.2857V143.69L158.292 117.433C158.562 117.286 158.758 117.089 158.905 116.867V170.931L141.63 158.443C138.735 156.35 134.907 156.202 131.864 158L92.6035 181.374C89.9043 183 88.2357 185.931 88.2357 189.084V213L159.003 170.956L252.665 117.729C254.113 116.916 254.137 114.823 252.665 113.985V114.059ZM198.657 93.9606V137.655L160.427 115.537L198.657 93.9606Z"/>
  </g>
  <text x="86" y="160.5" font-family="sans-serif" font-size="7.5" font-weight="bold" fill="#A4E322" text-anchor="middle">Millie B</text>
  <text x="86" y="170"   font-family="sans-serif" font-size="4.8"                    fill="#E4FDB2" text-anchor="middle">Chief Morale Officer</text>
  <ellipse cx="66" cy="154" rx="13" ry="2.5" fill="white" opacity="0.28"/>

  <!-- ══════════════════════════════════ -->
  <!--  HEAD BASE                        -->
  <!-- ══════════════════════════════════ -->

  <path d="M32 80 Q36 30 80 26 Q124 30 128 80 Q132 114 108 132 Q94 142 80 142 Q66 142 52 132 Q28 114 32 80Z"
        fill="url(#fur-head)"/>
  <!-- Face shadows under ears -->
  <ellipse cx="42"  cy="88" rx="14" ry="22" fill="#2A1006" opacity="0.22" filter="url(#fvsoft)"/>
  <ellipse cx="118" cy="88" rx="14" ry="22" fill="#2A1006" opacity="0.22" filter="url(#fvsoft)"/>
  <!-- Forehead highlight -->
  <ellipse cx="80"  cy="48" rx="22" ry="14" fill="#E0A858" opacity="0.16"/>

  <!-- Dog brow spots — tan ovals above each eye -->
  <ellipse cx="57"  cy="65" rx="6" ry="4" fill="#D09040" opacity="0.5"/>
  <ellipse cx="100" cy="61" rx="6" ry="4" fill="#D09040" opacity="0.5"/>

  <!-- ══════════════════════════════════ -->
  <!--  FUR — top of head                -->
  <!-- ══════════════════════════════════ -->

  <!-- Row 1 — crown -->
  <path d="M55,40 C57,34 62,32 64,38"     stroke="#B06030" stroke-width="3"   fill="none" stroke-linecap="round"/>
  <path d="M62,37 C64,31 69,29 71,35"     stroke="#C07840" stroke-width="3"   fill="none" stroke-linecap="round"/>
  <path d="M70,35 C72,29 77,27 79,33"     stroke="#B06030" stroke-width="3"   fill="none" stroke-linecap="round"/>
  <path d="M78,34 C80,28 85,26 87,32"     stroke="#C07840" stroke-width="3"   fill="none" stroke-linecap="round"/>
  <path d="M86,35 C88,29 93,27 95,33"     stroke="#B06030" stroke-width="3"   fill="none" stroke-linecap="round"/>
  <path d="M94,37 C96,31 101,29 103,35"   stroke="#9A5028" stroke-width="3"   fill="none" stroke-linecap="round"/>
  <path d="M101,40 C103,34 108,32 110,38"  stroke="#B06030" stroke-width="3"   fill="none" stroke-linecap="round"/>
  <!-- Row 2 -->
  <path d="M47,50 C49,44 54,42 56,48"     stroke="#9A5028" stroke-width="2.8" fill="none" stroke-linecap="round"/>
  <path d="M55,46 C57,40 62,38 64,44"     stroke="#B06030" stroke-width="2.8" fill="none" stroke-linecap="round"/>
  <path d="M63,43 C65,37 70,35 72,41"     stroke="#C07840" stroke-width="2.8" fill="none" stroke-linecap="round"/>
  <path d="M71,42 C73,36 78,34 80,40"     stroke="#B06030" stroke-width="2.8" fill="none" stroke-linecap="round"/>
  <path d="M79,42 C81,36 86,34 88,40"     stroke="#9A5028" stroke-width="2.8" fill="none" stroke-linecap="round"/>
  <path d="M87,43 C89,37 94,35 96,41"     stroke="#C07840" stroke-width="2.8" fill="none" stroke-linecap="round"/>
  <path d="M95,46 C97,40 102,38 104,44"   stroke="#B06030" stroke-width="2.8" fill="none" stroke-linecap="round"/>
  <path d="M103,50 C105,44 110,42 112,48"  stroke="#9A5028" stroke-width="2.8" fill="none" stroke-linecap="round"/>
  <!-- Row 3 -->
  <path d="M41,61 C43,55 48,53 50,59"     stroke="#8A4820" stroke-width="2.5" fill="none" stroke-linecap="round"/>
  <path d="M49,56 C51,50 56,48 58,54"     stroke="#9A5028" stroke-width="2.5" fill="none" stroke-linecap="round"/>
  <path d="M57,53 C59,47 64,45 66,51"     stroke="#B06030" stroke-width="2.5" fill="none" stroke-linecap="round"/>
  <path d="M65,51 C67,45 72,43 74,49"     stroke="#9A5028" stroke-width="2.5" fill="none" stroke-linecap="round"/>
  <path d="M73,50 C75,44 80,42 82,48"     stroke="#B06030" stroke-width="2.5" fill="none" stroke-linecap="round"/>
  <path d="M81,51 C83,45 88,43 90,49"     stroke="#9A5028" stroke-width="2.5" fill="none" stroke-linecap="round"/>
  <path d="M89,53 C91,47 96,45 98,51"     stroke="#B06030" stroke-width="2.5" fill="none" stroke-linecap="round"/>
  <path d="M97,56 C99,50 104,48 106,54"   stroke="#9A5028" stroke-width="2.5" fill="none" stroke-linecap="round"/>
  <path d="M105,61 C107,55 112,53 114,59"  stroke="#8A4820" stroke-width="2.5" fill="none" stroke-linecap="round"/>
  <!-- Side sweeps toward ears -->
  <path d="M58,32 C50,34 42,37 36,42 C30,47 27,54 26,62" stroke="#B06030" stroke-width="2.5" fill="none" stroke-linecap="round"/>
  <path d="M62,30 C54,32 46,35 40,40 C34,45 31,52 30,60" stroke="#9A5028" stroke-width="2.2" fill="none" stroke-linecap="round"/>
  <path d="M102,32 C110,34 118,37 124,42 C130,47 133,54 134,62" stroke="#B06030" stroke-width="2.5" fill="none" stroke-linecap="round"/>
  <path d="M98,30 C106,32 114,35 120,40 C126,45 129,52 130,60" stroke="#9A5028" stroke-width="2.2" fill="none" stroke-linecap="round"/>

  <!-- Chin fur -->
  <path d="M58,132 Q61,138 58,135" stroke="#7A3C18" stroke-width="2.2" fill="none" stroke-linecap="round"/>
  <path d="M66,136 Q69,142 66,139" stroke="#8A4820" stroke-width="2.2" fill="none" stroke-linecap="round"/>
  <path d="M74,138 Q77,144 74,141" stroke="#9A5028" stroke-width="2.2" fill="none" stroke-linecap="round"/>
  <path d="M82,138 Q85,144 82,141" stroke="#7A3C18" stroke-width="2.2" fill="none" stroke-linecap="round"/>
  <path d="M90,136 Q93,142 90,139" stroke="#8A4820" stroke-width="2.2" fill="none" stroke-linecap="round"/>
  <path d="M98,132 Q101,138 98,135" stroke="#7A3C18" stroke-width="2.2" fill="none" stroke-linecap="round"/>

  <!-- ══════════════════════════════════ -->
  <!--  MUZZLE                           -->
  <!-- ══════════════════════════════════ -->

  <ellipse cx="80" cy="106" rx="28" ry="22" fill="url(#fur-muzzle)"/>
  <ellipse cx="56"  cy="106" rx="10" ry="15" fill="#6A3010" opacity="0.22" filter="url(#fvsoft)"/>
  <ellipse cx="104" cy="106" rx="10" ry="15" fill="#6A3010" opacity="0.22" filter="url(#fvsoft)"/>
  <path d="M57,100 C59,95 62,94 62,99"    stroke="#D4A060" stroke-width="2.2" fill="none" stroke-linecap="round" opacity="0.7"/>
  <path d="M65,97 C67,92 70,91 70,96"     stroke="#E0B870" stroke-width="2.2" fill="none" stroke-linecap="round" opacity="0.7"/>
  <path d="M88,97 C90,92 93,91 93,96"     stroke="#E0B870" stroke-width="2.2" fill="none" stroke-linecap="round" opacity="0.7"/>
  <path d="M96,100 C98,95 101,94 101,99"  stroke="#D4A060" stroke-width="2.2" fill="none" stroke-linecap="round" opacity="0.7"/>

  <!-- ══════════════════════════════════ -->
  <!--  EYEBROW FUR                      -->
  <!-- ══════════════════════════════════ -->

  <path d="M45,66 C49,60 55,59 59,64"    stroke="#C07840" stroke-width="2.8" fill="none" stroke-linecap="round"/>
  <path d="M48,63 C52,57 58,56 62,61"    stroke="#B06030" stroke-width="2.2" fill="none" stroke-linecap="round"/>
  <path d="M98,63 C102,57 108,56 112,61"  stroke="#C07840" stroke-width="2.8" fill="none" stroke-linecap="round"/>
  <path d="M101,60 C105,54 111,53 115,58" stroke="#B06030" stroke-width="2.2" fill="none" stroke-linecap="round"/>

  <!-- ══════════════════════════════════ -->
  <!--  EYES                             -->
  <!-- ══════════════════════════════════ -->

  <circle cx="57"  cy="76" r="14" fill="#5C2C10" opacity="0.32" filter="url(#fvsoft)"/>
  <circle cx="100" cy="72" r="14" fill="#5C2C10" opacity="0.32" filter="url(#fvsoft)"/>
  <circle cx="57"  cy="76" r="10" fill="white"/>
  <circle cx="100" cy="72" r="10" fill="white"/>
  <path d="M47,76 A10,10 0 0 0 67,76 Q63,81 57,81 Q51,81 47,76Z"   fill="#EDE0D0" opacity="0.3"/>
  <path d="M90,72 A10,10 0 0 0 110,72 Q106,77 100,77 Q94,77 90,72Z" fill="#EDE0D0" opacity="0.3"/>

  <g clip-path="url(#leye)">
    <circle cx="57" cy="76" r="10"  fill="#120804"/>
    <circle cx="57" cy="76" r="9"   fill="url(#iris-l)"/>
    <line x1="57" y1="67" x2="57" y2="76" stroke="#B06030" stroke-width="0.5" opacity="0.3"/>
    <line x1="64" y1="69" x2="57" y2="76" stroke="#B06030" stroke-width="0.5" opacity="0.3"/>
    <line x1="50" y1="69" x2="57" y2="76" stroke="#B06030" stroke-width="0.5" opacity="0.3"/>
    <ellipse cx="57" cy="82" rx="8"   ry="4"   fill="#120804" opacity="0.5"/>
    <ellipse cx="57" cy="70" rx="6.5" ry="3.5" fill="#A05020" opacity="0.28"/>
    <circle cx="57" cy="76" r="5"  fill="#060302"/>
    <circle cx="57" cy="76" r="4"  fill="#020101"/>
    <ellipse cx="60" cy="71" rx="3.5" ry="2.5" fill="white"/>
    <ellipse cx="54" cy="80" rx="2"   ry="1.5" fill="white" opacity="0.6"/>
    <circle  cx="62" cy="73" r="1.2"            fill="white" opacity="0.9"/>
  </g>
  <path d="M47,76 A10,10 0 0 1 67,76" stroke="#060402" stroke-width="3.5" fill="none"/>
  <line x1="48" y1="74" x2="44" y2="69" stroke="#060402" stroke-width="1.5" stroke-linecap="round"/>
  <line x1="52" y1="68" x2="50" y2="63" stroke="#060402" stroke-width="1.5" stroke-linecap="round"/>
  <line x1="57" y1="66" x2="57" y2="61" stroke="#060402" stroke-width="1.5" stroke-linecap="round"/>
  <line x1="62" y1="68" x2="64" y2="63" stroke="#060402" stroke-width="1.5" stroke-linecap="round"/>
  <line x1="66" y1="74" x2="70" y2="69" stroke="#060402" stroke-width="1.5" stroke-linecap="round"/>
  <path d="M48,79 A10,8 0 0 0 66,79" stroke="#200A04" stroke-width="1.1" fill="none"/>

  <g clip-path="url(#reye)">
    <circle cx="100" cy="72" r="10"  fill="#120804"/>
    <circle cx="100" cy="72" r="9"   fill="url(#iris-r)"/>
    <line x1="100" y1="63" x2="100" y2="72" stroke="#B06030" stroke-width="0.5" opacity="0.3"/>
    <line x1="107" y1="65" x2="100" y2="72" stroke="#B06030" stroke-width="0.5" opacity="0.3"/>
    <line x1="93"  y1="65" x2="100" y2="72" stroke="#B06030" stroke-width="0.5" opacity="0.3"/>
    <ellipse cx="100" cy="78" rx="8"   ry="4"   fill="#120804" opacity="0.5"/>
    <ellipse cx="100" cy="66" rx="6.5" ry="3.5" fill="#A05020" opacity="0.28"/>
    <circle cx="100" cy="72" r="5"  fill="#060302"/>
    <circle cx="100" cy="72" r="4"  fill="#020101"/>
    <ellipse cx="103" cy="67" rx="3.5" ry="2.5" fill="white"/>
    <ellipse cx="97"  cy="76" rx="2"   ry="1.5" fill="white" opacity="0.6"/>
    <circle  cx="105" cy="69" r="1.2"            fill="white" opacity="0.9"/>
  </g>
  <path d="M90,72 A10,10 0 0 1 110,72" stroke="#060402" stroke-width="3.5" fill="none"/>
  <line x1="91"  y1="70" x2="87"  y2="65" stroke="#060402" stroke-width="1.5" stroke-linecap="round"/>
  <line x1="95"  y1="64" x2="93"  y2="59" stroke="#060402" stroke-width="1.5" stroke-linecap="round"/>
  <line x1="100" y1="62" x2="100" y2="57" stroke="#060402" stroke-width="1.5" stroke-linecap="round"/>
  <line x1="105" y1="64" x2="107" y2="59" stroke="#060402" stroke-width="1.5" stroke-linecap="round"/>
  <line x1="109" y1="70" x2="113" y2="65" stroke="#060402" stroke-width="1.5" stroke-linecap="round"/>
  <path d="M91,75 A10,8 0 0 0 109,75" stroke="#200A04" stroke-width="1.1" fill="none"/>
  <!-- Tear ducts -->
  <ellipse cx="48" cy="76" rx="2.2" ry="1.6" fill="#E8B0A8" opacity="0.55"/>
  <ellipse cx="90" cy="72" rx="2.2" ry="1.6" fill="#E8B0A8" opacity="0.55"/>

  <!-- ══════════════════════════════════ -->
  <!--  CHEEK FUR — small face strands   -->
  <!-- ══════════════════════════════════ -->

  <!-- Left outer cheek -->
  <path d="M37,83 C35,88 37,94 35,99"   stroke="#8A4820" stroke-width="1.8" fill="none" stroke-linecap="round"/>
  <path d="M40,81 C38,86 40,92 38,97"   stroke="#9A5028" stroke-width="1.7" fill="none" stroke-linecap="round"/>
  <path d="M43,80 C41,85 43,91 41,96"   stroke="#B06030" stroke-width="1.6" fill="none" stroke-linecap="round"/>
  <path d="M46,79 C44,84 46,90 44,95"   stroke="#9A5028" stroke-width="1.5" fill="none" stroke-linecap="round"/>
  <path d="M36,101 C34,106 36,111 34,116" stroke="#7A3C18" stroke-width="1.8" fill="none" stroke-linecap="round"/>
  <path d="M39,99 C37,104 39,109 37,114" stroke="#8A4820" stroke-width="1.7" fill="none" stroke-linecap="round"/>
  <path d="M42,97 C40,102 42,107 40,112" stroke="#9A5028" stroke-width="1.6" fill="none" stroke-linecap="round"/>
  <path d="M45,96 C43,101 45,106 43,111" stroke="#8A4820" stroke-width="1.5" fill="none" stroke-linecap="round"/>
  <!-- Left inner cheek (between eye and muzzle) -->
  <path d="M50,85 C49,89 51,93 50,97"   stroke="#B06030" stroke-width="1.4" fill="none" stroke-linecap="round"/>
  <path d="M53,84 C52,88 54,92 53,96"   stroke="#C07840" stroke-width="1.3" fill="none" stroke-linecap="round"/>
  <path d="M56,84 C55,88 57,92 56,96"   stroke="#B06030" stroke-width="1.3" fill="none" stroke-linecap="round"/>

  <!-- Right outer cheek -->
  <path d="M123,83 C125,88 123,94 125,99"  stroke="#8A4820" stroke-width="1.8" fill="none" stroke-linecap="round"/>
  <path d="M120,81 C122,86 120,92 122,97"  stroke="#9A5028" stroke-width="1.7" fill="none" stroke-linecap="round"/>
  <path d="M117,80 C119,85 117,91 119,96"  stroke="#B06030" stroke-width="1.6" fill="none" stroke-linecap="round"/>
  <path d="M114,79 C116,84 114,90 116,95"  stroke="#9A5028" stroke-width="1.5" fill="none" stroke-linecap="round"/>
  <path d="M124,101 C126,106 124,111 126,116" stroke="#7A3C18" stroke-width="1.8" fill="none" stroke-linecap="round"/>
  <path d="M121,99 C123,104 121,109 123,114" stroke="#8A4820" stroke-width="1.7" fill="none" stroke-linecap="round"/>
  <path d="M118,97 C120,102 118,107 120,112" stroke="#9A5028" stroke-width="1.6" fill="none" stroke-linecap="round"/>
  <path d="M115,96 C117,101 115,106 117,111" stroke="#8A4820" stroke-width="1.5" fill="none" stroke-linecap="round"/>
  <!-- Right inner cheek (between eye and muzzle) -->
  <path d="M110,85 C111,89 109,93 110,97"  stroke="#B06030" stroke-width="1.4" fill="none" stroke-linecap="round"/>
  <path d="M107,84 C108,88 106,92 107,96"  stroke="#C07840" stroke-width="1.3" fill="none" stroke-linecap="round"/>
  <path d="M104,84 C105,88 103,92 104,96"  stroke="#B06030" stroke-width="1.3" fill="none" stroke-linecap="round"/>

  <!-- ══════════════════════════════════ -->
  <!--  NOSE                             -->
  <!-- ══════════════════════════════════ -->

  <!-- Dog nose — wide, dark, with nostrils -->
  <ellipse cx="80" cy="101" rx="14" ry="9" fill="#180E08"/>
  <ellipse cx="74" cy="101" rx="5"  ry="3.8" fill="#0C0804" opacity="0.85"/>
  <ellipse cx="86" cy="101" rx="5"  ry="3.8" fill="#0C0804" opacity="0.85"/>
  <path d="M72,99 Q74,96 76,99" stroke="#3A2010" stroke-width="1.1" fill="none"/>
  <path d="M84,99 Q86,96 88,99" stroke="#3A2010" stroke-width="1.1" fill="none"/>
  <ellipse cx="75" cy="98"  rx="3.5" ry="2"   fill="white" opacity="0.38"/>
  <ellipse cx="71" cy="100" rx="1.2" ry="0.8" fill="white" opacity="0.22"/>
  <line x1="80" y1="110" x2="80" y2="114" stroke="#3A1808" stroke-width="1.8"/>

  <!-- ══════════════════════════════════ -->
  <!--  MOUTH + TONGUE                   -->
  <!-- ══════════════════════════════════ -->

  <path d="M65,113 Q73,118 80,116 Q87,118 95,113" stroke="#6A2C10" stroke-width="2" fill="none" stroke-linecap="round"/>
  <path d="M65,113 Q80,125 95,113 Q87,121 80,122 Q73,121 65,113Z" fill="#2E1006"/>
  <ellipse cx="80" cy="125" rx="11" ry="9"  fill="#E070A0"/>
  <line   x1="80" y1="116"  x2="80" y2="134" stroke="#C05080" stroke-width="1.8"/>
  <ellipse cx="75" cy="121" rx="3.5" ry="2.5" fill="white" opacity="0.28"/>

  <!-- ══════════════════════════════════ -->
  <!--  FRONT PAWS                       -->
  <!-- ══════════════════════════════════ -->

  <ellipse cx="50"  cy="187" rx="24" ry="16" fill="#4A2010"/>
  <ellipse cx="50"  cy="185" rx="22" ry="14" fill="url(#fur-body)"/>
  <circle cx="38"  cy="178" r="7" fill="#6A3018"/>
  <circle cx="50"  cy="175" r="7" fill="#6A3018"/>
  <circle cx="62"  cy="178" r="7" fill="#6A3018"/>
  <path d="M32,182 C34,177 38,176 38,181" stroke="#9A5028" stroke-width="2" fill="none" stroke-linecap="round"/>
  <path d="M44,176 C46,171 50,170 50,175" stroke="#B06030" stroke-width="2" fill="none" stroke-linecap="round"/>
  <path d="M56,176 C58,171 62,170 62,175" stroke="#9A5028" stroke-width="2" fill="none" stroke-linecap="round"/>

  <ellipse cx="110" cy="187" rx="24" ry="16" fill="#4A2010"/>
  <ellipse cx="110" cy="185" rx="22" ry="14" fill="url(#fur-body)"/>
  <circle cx="98"  cy="178" r="7" fill="#6A3018"/>
  <circle cx="110" cy="175" r="7" fill="#6A3018"/>
  <circle cx="122" cy="178" r="7" fill="#6A3018"/>
  <path d="M92,182  C94,177 98,176 98,181"    stroke="#9A5028" stroke-width="2" fill="none" stroke-linecap="round"/>
  <path d="M104,176 C106,171 110,170 110,175"  stroke="#B06030" stroke-width="2" fill="none" stroke-linecap="round"/>
  <path d="M116,176 C118,171 122,170 122,175"  stroke="#9A5028" stroke-width="2" fill="none" stroke-linecap="round"/>


</svg>
