<svg xmlns="http://www.w3.org/2000/svg" viewBox="0 0 160 200">
  <defs>
    <!-- Eye clips -->
    <clipPath id="leye"><circle cx="60" cy="75" r="10"/></clipPath>
    <clipPath id="reye"><circle cx="100" cy="75" r="10"/></clipPath>

    <!-- Iris — warm dark brown -->
    <radialGradient id="iris-l" cx="63" cy="71" r="10" gradientUnits="userSpaceOnUse">
      <stop offset="0%"   stop-color="#C87830"/>
      <stop offset="28%"  stop-color="#8B4820"/>
      <stop offset="62%"  stop-color="#5C2C10"/>
      <stop offset="100%" stop-color="#2A1008"/>
    </radialGradient>
    <radialGradient id="iris-r" cx="103" cy="71" r="10" gradientUnits="userSpaceOnUse">
      <stop offset="0%"   stop-color="#C87830"/>
      <stop offset="28%"  stop-color="#8B4820"/>
      <stop offset="62%"  stop-color="#5C2C10"/>
      <stop offset="100%" stop-color="#2A1008"/>
    </radialGradient>

    <!-- Fur gradients -->
    <radialGradient id="fur-head" cx="80" cy="65" r="60" gradientUnits="userSpaceOnUse">
      <stop offset="0%"   stop-color="#E0B068"/>
      <stop offset="35%"  stop-color="#C48840"/>
      <stop offset="65%"  stop-color="#A06830"/>
      <stop offset="100%" stop-color="#7A4818"/>
    </radialGradient>
    <radialGradient id="fur-muzzle" cx="80" cy="100" r="26" gradientUnits="userSpaceOnUse">
      <stop offset="0%"   stop-color="#EDD0A0"/>
      <stop offset="55%"  stop-color="#D4A870"/>
      <stop offset="100%" stop-color="#B88840"/>
    </radialGradient>
    <radialGradient id="fur-body" cx="80" cy="165" r="55" gradientUnits="userSpaceOnUse">
      <stop offset="0%"   stop-color="#C8904A"/>
      <stop offset="50%"  stop-color="#A06830"/>
      <stop offset="100%" stop-color="#7A4818"/>
    </radialGradient>

    <!-- Filters -->
    <filter id="fsoft"  x="-50%" y="-50%" width="200%" height="200%"><feGaussianBlur stdDeviation="3"/></filter>
    <filter id="fvsoft" x="-30%" y="-30%" width="160%" height="160%"><feGaussianBlur stdDeviation="1.8"/></filter>
  </defs>

  <!-- ══════════════════════════════════ -->
  <!--  EARS (behind head)               -->
  <!-- ══════════════════════════════════ -->

  <!-- Left ear -->
  <ellipse cx="37" cy="108" rx="24" ry="40" fill="#5C3010"/>
  <ellipse cx="37" cy="108" rx="21" ry="37" fill="#8A5020"/>
  <ellipse cx="34" cy="100" rx="12" ry="22" fill="#A86830" opacity="0.7"/>
  <path d="M28,68 Q31,74 34,68"    stroke="#C4844A" stroke-width="2"   fill="none" stroke-linecap="round" opacity="0.6"/>
  <path d="M38,64 Q41,70 44,64"    stroke="#B87838" stroke-width="2"   fill="none" stroke-linecap="round" opacity="0.5"/>
  <path d="M22,75 Q25,82 28,75"    stroke="#7A4418" stroke-width="2.2" fill="none" stroke-linecap="round"/>
  <path d="M16,88 Q20,95 24,88"    stroke="#8B5020" stroke-width="2.2" fill="none" stroke-linecap="round"/>
  <path d="M14,100 Q18,107 22,100" stroke="#7A4418" stroke-width="2.2" fill="none" stroke-linecap="round"/>
  <path d="M16,112 Q20,119 24,112" stroke="#8B5020" stroke-width="2.2" fill="none" stroke-linecap="round"/>
  <path d="M20,124 Q24,131 28,124" stroke="#7A4418" stroke-width="2.2" fill="none" stroke-linecap="round"/>
  <path d="M26,135 Q30,142 34,135" stroke="#9A5E28" stroke-width="2.2" fill="none" stroke-linecap="round"/>
  <path d="M33,145 Q37,151 41,145" stroke="#7A4418" stroke-width="2.2" fill="none" stroke-linecap="round"/>
  <path d="M19,80 Q22,87 25,80"    stroke="#9A5E28" stroke-width="1.8" fill="none" stroke-linecap="round" opacity="0.7"/>

  <!-- Right ear -->
  <ellipse cx="123" cy="108" rx="24" ry="40" fill="#5C3010"/>
  <ellipse cx="123" cy="108" rx="21" ry="37" fill="#8A5020"/>
  <ellipse cx="126" cy="100" rx="12" ry="22" fill="#A86830" opacity="0.7"/>
  <path d="M132,68 Q129,74 126,68"   stroke="#C4844A" stroke-width="2"   fill="none" stroke-linecap="round" opacity="0.6"/>
  <path d="M122,64 Q119,70 116,64"   stroke="#B87838" stroke-width="2"   fill="none" stroke-linecap="round" opacity="0.5"/>
  <path d="M138,75 Q135,82 132,75"   stroke="#7A4418" stroke-width="2.2" fill="none" stroke-linecap="round"/>
  <path d="M144,88 Q140,95 136,88"   stroke="#8B5020" stroke-width="2.2" fill="none" stroke-linecap="round"/>
  <path d="M146,100 Q142,107 138,100" stroke="#7A4418" stroke-width="2.2" fill="none" stroke-linecap="round"/>
  <path d="M144,112 Q140,119 136,112" stroke="#8B5020" stroke-width="2.2" fill="none" stroke-linecap="round"/>
  <path d="M140,124 Q136,131 132,124" stroke="#7A4418" stroke-width="2.2" fill="none" stroke-linecap="round"/>
  <path d="M134,135 Q130,142 126,135" stroke="#9A5E28" stroke-width="2.2" fill="none" stroke-linecap="round"/>
  <path d="M127,145 Q123,151 119,145" stroke="#7A4418" stroke-width="2.2" fill="none" stroke-linecap="round"/>
  <path d="M141,80 Q138,87 135,80"    stroke="#9A5E28" stroke-width="1.8" fill="none" stroke-linecap="round" opacity="0.7"/>

  <!-- ══════════════════════════════════ -->
  <!--  BODY                             -->
  <!-- ══════════════════════════════════ -->

  <path d="M22 150 Q20 200 80 200 Q140 200 138 150 Q118 134 80 132 Q42 134 22 150Z" fill="url(#fur-body)"/>
  <path d="M32,156 Q36,161 40,156" stroke="#B87838" stroke-width="2.2" fill="none" stroke-linecap="round"/>
  <path d="M45,151 Q49,156 53,151" stroke="#C8904A" stroke-width="2.2" fill="none" stroke-linecap="round"/>
  <path d="M58,148 Q62,153 66,148" stroke="#A86830" stroke-width="2.2" fill="none" stroke-linecap="round"/>
  <path d="M70,146 Q74,151 78,146" stroke="#C8904A" stroke-width="2.2" fill="none" stroke-linecap="round"/>
  <path d="M82,146 Q86,151 90,146" stroke="#B87838" stroke-width="2.2" fill="none" stroke-linecap="round"/>
  <path d="M94,148 Q98,153 102,148" stroke="#C8904A" stroke-width="2.2" fill="none" stroke-linecap="round"/>
  <path d="M107,151 Q111,156 115,151" stroke="#A86830" stroke-width="2.2" fill="none" stroke-linecap="round"/>
  <path d="M120,156 Q124,161 128,156" stroke="#B87838" stroke-width="2.2" fill="none" stroke-linecap="round"/>
  <path d="M37,167 Q41,172 45,167"   stroke="#A86830" stroke-width="2"   fill="none" stroke-linecap="round" opacity="0.7"/>
  <path d="M115,167 Q119,172 123,167" stroke="#A86830" stroke-width="2"   fill="none" stroke-linecap="round" opacity="0.7"/>

  <!-- ══════════════════════════════════ -->
  <!--  COLLAR + CMO TAG                 -->
  <!-- ══════════════════════════════════ -->

  <path d="M28 145 Q80 134 132 145" stroke="#FFFFFF" stroke-width="9"   fill="none" stroke-linecap="round"/>
  <path d="M29 143 Q80 132 131 143" stroke="#FFFFFF" stroke-width="2.5" fill="none" stroke-linecap="round" opacity="0.7"/>
  <path d="M30 148 Q80 137 130 148" stroke="#BBBBBB" stroke-width="2"   fill="none" stroke-linecap="round" opacity="0.5"/>

  <!-- Badge loop (chain from collar) -->
  <line x1="80" y1="144" x2="80" y2="148" stroke="#AAAAAA" stroke-width="2"/>
  <!-- Badge body — horizontal name tag -->
  <rect x="44" y="148" width="72" height="26" rx="6" fill="#093DB0"/>
  <rect x="44" y="148" width="72" height="26" rx="6" fill="#0C50D5"/>
  <rect x="44" y="148" width="72" height="26" rx="6" fill="none" stroke="#3F8CFF" stroke-width="0.8"/>
  <!-- GP chevron mark (small, left side of badge) -->
  <g transform="translate(47, 151.5) scale(0.055)" fill="#A4E322">
    <path d="M41 69.2069C41 72.3596 42.6686 75.2906 45.3678 76.9163L84.6286 100.291C87.6713 102.113 91.5238 101.941 94.3947 99.8473L111.768 87.3103L41 45.2906V69.2069Z"/>
    <path d="M84.6286 130.759L45.3678 154.158C42.6686 155.783 41 158.714 41 161.867V185.783L111.768 143.739L94.3947 131.202C91.5238 129.108 87.6713 128.961 84.6286 130.759Z"/>
    <path d="M252.665 114.059L158.979 60.069L88.2111 18V41.9163C88.2111 45.069 89.8797 48 92.5789 49.6256L131.84 73C134.882 74.8227 138.735 74.6502 141.606 72.5566L158.881 60.069V114.773C158.733 114.552 158.537 114.355 158.292 114.207L111.768 87.2857V143.69L158.292 117.433C158.562 117.286 158.758 117.089 158.905 116.867V170.931L141.63 158.443C138.735 156.35 134.907 156.202 131.864 158L92.6035 181.374C89.9043 183 88.2357 185.931 88.2357 189.084V213L159.003 170.956L252.665 117.729C254.113 116.916 254.137 114.823 252.665 113.985V114.059ZM198.657 93.9606V137.655L160.427 115.537L198.657 93.9606Z"/>
  </g>
  <!-- Badge text -->
  <text x="86" y="158.5" font-family="sans-serif" font-size="7.5" font-weight="bold" fill="#A4E322" text-anchor="middle">Millie B</text>
  <text x="86" y="168"   font-family="sans-serif" font-size="4.8"                    fill="#E4FDB2" text-anchor="middle">Chief Moral Officer</text>
  <!-- Badge shine -->
  <ellipse cx="66" cy="152" rx="13" ry="2.5" fill="white" opacity="0.28"/>

  <!-- ══════════════════════════════════ -->
  <!--  HEAD BASE                        -->
  <!-- ══════════════════════════════════ -->

  <path d="M32 80 Q36 30 80 26 Q124 30 128 80 Q132 114 108 132 Q94 142 80 142 Q66 142 52 132 Q28 114 32 80Z"
        fill="url(#fur-head)"/>

  <!-- Face shadow under ears -->
  <ellipse cx="42"  cy="88" rx="14" ry="22" fill="#6A3810" opacity="0.2"  filter="url(#fvsoft)"/>
  <ellipse cx="118" cy="88" rx="14" ry="22" fill="#6A3810" opacity="0.2"  filter="url(#fvsoft)"/>
  <!-- Forehead highlight -->
  <ellipse cx="80"  cy="48" rx="22" ry="14" fill="#EED090" opacity="0.18"/>

  <!-- ══════════════════════════════════ -->
  <!--  FUR CURLS — top of head          -->
  <!-- ══════════════════════════════════ -->

  <!-- Row 1 (very top) -->
  <path d="M57,40 Q60,35 63,40"   stroke="#D4A060" stroke-width="2.5" fill="none" stroke-linecap="round"/>
  <path d="M64,37 Q67,32 70,37"   stroke="#E0B870" stroke-width="2.5" fill="none" stroke-linecap="round"/>
  <path d="M72,35 Q75,30 78,35"   stroke="#D4A060" stroke-width="2.5" fill="none" stroke-linecap="round"/>
  <path d="M80,34 Q83,29 86,34"   stroke="#E0B870" stroke-width="2.5" fill="none" stroke-linecap="round"/>
  <path d="M88,35 Q91,30 94,35"   stroke="#D4A060" stroke-width="2.5" fill="none" stroke-linecap="round"/>
  <path d="M96,37 Q99,32 102,37"  stroke="#C8984A" stroke-width="2.5" fill="none" stroke-linecap="round"/>
  <path d="M103,40 Q106,35 109,40" stroke="#D4A060" stroke-width="2.5" fill="none" stroke-linecap="round"/>

  <!-- Row 2 -->
  <path d="M50,50 Q53,45 56,50"   stroke="#C8904A" stroke-width="2.5" fill="none" stroke-linecap="round"/>
  <path d="M58,46 Q61,41 64,46"   stroke="#D4A060" stroke-width="2.5" fill="none" stroke-linecap="round"/>
  <path d="M66,43 Q69,38 72,43"   stroke="#E0B870" stroke-width="2.5" fill="none" stroke-linecap="round"/>
  <path d="M74,42 Q77,37 80,42"   stroke="#D4A060" stroke-width="2.5" fill="none" stroke-linecap="round"/>
  <path d="M80,42 Q83,37 86,42"   stroke="#C8904A" stroke-width="2.5" fill="none" stroke-linecap="round"/>
  <path d="M88,43 Q91,38 94,43"   stroke="#E0B870" stroke-width="2.5" fill="none" stroke-linecap="round"/>
  <path d="M96,46 Q99,41 102,46"  stroke="#D4A060" stroke-width="2.5" fill="none" stroke-linecap="round"/>
  <path d="M104,50 Q107,45 110,50" stroke="#C8904A" stroke-width="2.5" fill="none" stroke-linecap="round"/>

  <!-- Row 3 (upper forehead) -->
  <path d="M44,62 Q47,57 50,62"   stroke="#B88040" stroke-width="2.5" fill="none" stroke-linecap="round"/>
  <path d="M52,56 Q55,51 58,56"   stroke="#C8904A" stroke-width="2.5" fill="none" stroke-linecap="round"/>
  <path d="M60,53 Q63,48 66,53"   stroke="#D4A060" stroke-width="2.5" fill="none" stroke-linecap="round"/>
  <path d="M68,51 Q71,46 74,51"   stroke="#C8904A" stroke-width="2.5" fill="none" stroke-linecap="round"/>
  <path d="M76,50 Q79,45 82,50"   stroke="#D4A060" stroke-width="2.5" fill="none" stroke-linecap="round"/>
  <path d="M84,51 Q87,46 90,51"   stroke="#C8904A" stroke-width="2.5" fill="none" stroke-linecap="round"/>
  <path d="M92,53 Q95,48 98,53"   stroke="#D4A060" stroke-width="2.5" fill="none" stroke-linecap="round"/>
  <path d="M100,56 Q103,51 106,56" stroke="#C8904A" stroke-width="2.5" fill="none" stroke-linecap="round"/>
  <path d="M108,62 Q111,57 114,62" stroke="#B88040" stroke-width="2.5" fill="none" stroke-linecap="round"/>

  <!-- Left face side curls -->
  <path d="M36,72 Q40,67 44,72"   stroke="#B07830" stroke-width="2.3" fill="none" stroke-linecap="round"/>
  <path d="M33,83 Q37,78 41,83"   stroke="#C8904A" stroke-width="2.3" fill="none" stroke-linecap="round"/>
  <path d="M34,95 Q38,90 42,95"   stroke="#A86830" stroke-width="2.3" fill="none" stroke-linecap="round"/>
  <path d="M38,107 Q42,102 46,107" stroke="#B88040" stroke-width="2.3" fill="none" stroke-linecap="round"/>
  <path d="M44,118 Q48,113 52,118" stroke="#A06028" stroke-width="2.3" fill="none" stroke-linecap="round"/>
  <path d="M50,128 Q54,123 58,128" stroke="#B07830" stroke-width="2.3" fill="none" stroke-linecap="round"/>

  <!-- Right face side curls -->
  <path d="M124,72 Q120,67 116,72"   stroke="#B07830" stroke-width="2.3" fill="none" stroke-linecap="round"/>
  <path d="M127,83 Q123,78 119,83"   stroke="#C8904A" stroke-width="2.3" fill="none" stroke-linecap="round"/>
  <path d="M126,95 Q122,90 118,95"   stroke="#A86830" stroke-width="2.3" fill="none" stroke-linecap="round"/>
  <path d="M122,107 Q118,102 114,107" stroke="#B88040" stroke-width="2.3" fill="none" stroke-linecap="round"/>
  <path d="M116,118 Q112,113 108,118" stroke="#A06028" stroke-width="2.3" fill="none" stroke-linecap="round"/>
  <path d="M110,128 Q106,123 102,128" stroke="#B07830" stroke-width="2.3" fill="none" stroke-linecap="round"/>

  <!-- Chin curls -->
  <path d="M59,130 Q62,135 65,130" stroke="#B07830" stroke-width="2.2" fill="none" stroke-linecap="round"/>
  <path d="M67,134 Q70,139 73,134" stroke="#A86830" stroke-width="2.2" fill="none" stroke-linecap="round"/>
  <path d="M75,136 Q78,141 81,136" stroke="#C8904A" stroke-width="2.2" fill="none" stroke-linecap="round"/>
  <path d="M81,136 Q84,141 87,136" stroke="#B07830" stroke-width="2.2" fill="none" stroke-linecap="round"/>
  <path d="M89,134 Q92,139 95,134" stroke="#A86830" stroke-width="2.2" fill="none" stroke-linecap="round"/>
  <path d="M97,130 Q100,135 103,130" stroke="#B07830" stroke-width="2.2" fill="none" stroke-linecap="round"/>

  <!-- ══════════════════════════════════ -->
  <!--  MUZZLE                           -->
  <!-- ══════════════════════════════════ -->

  <ellipse cx="80" cy="105" rx="28" ry="22" fill="url(#fur-muzzle)"/>
  <ellipse cx="56"  cy="105" rx="10" ry="15" fill="#8B5828" opacity="0.22" filter="url(#fvsoft)"/>
  <ellipse cx="104" cy="105" rx="10" ry="15" fill="#8B5828" opacity="0.22" filter="url(#fvsoft)"/>
  <ellipse cx="80"  cy="116" rx="22" ry="10" fill="#A07040" opacity="0.18" filter="url(#fvsoft)"/>
  <!-- Muzzle fur texture -->
  <path d="M56,100 Q59,95 62,100"   stroke="#D4A870" stroke-width="2"   fill="none" stroke-linecap="round" opacity="0.7"/>
  <path d="M64,97 Q67,92 70,97"     stroke="#E0B880" stroke-width="2"   fill="none" stroke-linecap="round" opacity="0.7"/>
  <path d="M90,97 Q93,92 96,97"     stroke="#E0B880" stroke-width="2"   fill="none" stroke-linecap="round" opacity="0.7"/>
  <path d="M98,100 Q101,95 104,100" stroke="#D4A870" stroke-width="2"   fill="none" stroke-linecap="round" opacity="0.7"/>

  <!-- ══════════════════════════════════ -->
  <!--  EYEBROW FUR (above eyes)         -->
  <!-- ══════════════════════════════════ -->

  <path d="M49,64 Q54,59 59,64" stroke="#E0B870" stroke-width="2.5" fill="none" stroke-linecap="round"/>
  <path d="M53,60 Q58,55 63,60" stroke="#D4A060" stroke-width="2"   fill="none" stroke-linecap="round"/>
  <path d="M97,64 Q102,59 107,64" stroke="#E0B870" stroke-width="2.5" fill="none" stroke-linecap="round"/>
  <path d="M101,60 Q106,55 111,60" stroke="#D4A060" stroke-width="2"  fill="none" stroke-linecap="round"/>

  <!-- ══════════════════════════════════ -->
  <!--  EYES                             -->
  <!-- ══════════════════════════════════ -->

  <!-- Eye fur rings -->
  <circle cx="60"  cy="75" r="14" fill="#7A3C18" opacity="0.3" filter="url(#fvsoft)"/>
  <circle cx="100" cy="75" r="14" fill="#7A3C18" opacity="0.3" filter="url(#fvsoft)"/>

  <!-- Sclera -->
  <circle cx="60"  cy="75" r="10" fill="white"/>
  <circle cx="100" cy="75" r="10" fill="white"/>
  <!-- Sclera corner tint -->
  <path d="M50,75 A10,10 0 0 0 70,75 Q66,80 60,80 Q54,80 50,75Z"   fill="#E8E0D8" opacity="0.3"/>
  <path d="M90,75 A10,10 0 0 0 110,75 Q106,80 100,80 Q94,80 90,75Z" fill="#E8E0D8" opacity="0.3"/>

  <!-- LEFT IRIS (clipped) -->
  <g clip-path="url(#leye)">
    <circle cx="60" cy="75" r="10"  fill="#1A0C04"/>
    <circle cx="60" cy="75" r="9"   fill="url(#iris-l)"/>
    <line x1="60" y1="66" x2="60" y2="75" stroke="#D49040" stroke-width="0.5" opacity="0.3"/>
    <line x1="67" y1="68" x2="60" y2="75" stroke="#D49040" stroke-width="0.5" opacity="0.3"/>
    <line x1="53" y1="68" x2="60" y2="75" stroke="#D49040" stroke-width="0.5" opacity="0.3"/>
    <line x1="69" y1="75" x2="60" y2="75" stroke="#D49040" stroke-width="0.5" opacity="0.25"/>
    <line x1="51" y1="75" x2="60" y2="75" stroke="#D49040" stroke-width="0.5" opacity="0.25"/>
    <ellipse cx="60" cy="81" rx="8"   ry="4"   fill="#1A0C04" opacity="0.5"/>
    <ellipse cx="60" cy="69" rx="6.5" ry="3.5" fill="#C87830" opacity="0.28"/>
    <circle cx="60" cy="75" r="5"  fill="#060402"/>
    <circle cx="60" cy="75" r="4"  fill="#020100"/>
    <ellipse cx="63" cy="70" rx="3.5" ry="2.5" fill="white"/>
    <ellipse cx="57" cy="79" rx="2"   ry="1.5" fill="white" opacity="0.6"/>
    <circle  cx="65" cy="72" r="1.2"            fill="white" opacity="0.9"/>
    <path d="M53,81 Q60,83 67,81" stroke="#C87830" stroke-width="0.8" fill="none" opacity="0.35"/>
  </g>
  <!-- Upper lash line left -->
  <path d="M50,75 A10,10 0 0 1 70,75" stroke="#060402" stroke-width="3.5" fill="none"/>
  <line x1="51" y1="73" x2="47" y2="68" stroke="#060402" stroke-width="1.5" stroke-linecap="round"/>
  <line x1="55" y1="67" x2="53" y2="62" stroke="#060402" stroke-width="1.5" stroke-linecap="round"/>
  <line x1="60" y1="65" x2="60" y2="60" stroke="#060402" stroke-width="1.5" stroke-linecap="round"/>
  <line x1="65" y1="67" x2="67" y2="62" stroke="#060402" stroke-width="1.5" stroke-linecap="round"/>
  <line x1="69" y1="73" x2="73" y2="68" stroke="#060402" stroke-width="1.5" stroke-linecap="round"/>
  <!-- Lower lash line -->
  <path d="M51,78 A10,8 0 0 0 69,78" stroke="#200A04" stroke-width="1.1" fill="none"/>

  <!-- RIGHT IRIS (clipped) -->
  <g clip-path="url(#reye)">
    <circle cx="100" cy="75" r="10"  fill="#1A0C04"/>
    <circle cx="100" cy="75" r="9"   fill="url(#iris-r)"/>
    <line x1="100" y1="66" x2="100" y2="75" stroke="#D49040" stroke-width="0.5" opacity="0.3"/>
    <line x1="107" y1="68" x2="100" y2="75" stroke="#D49040" stroke-width="0.5" opacity="0.3"/>
    <line x1="93"  y1="68" x2="100" y2="75" stroke="#D49040" stroke-width="0.5" opacity="0.3"/>
    <line x1="109" y1="75" x2="100" y2="75" stroke="#D49040" stroke-width="0.5" opacity="0.25"/>
    <line x1="91"  y1="75" x2="100" y2="75" stroke="#D49040" stroke-width="0.5" opacity="0.25"/>
    <ellipse cx="100" cy="81" rx="8"   ry="4"   fill="#1A0C04" opacity="0.5"/>
    <ellipse cx="100" cy="69" rx="6.5" ry="3.5" fill="#C87830" opacity="0.28"/>
    <circle cx="100" cy="75" r="5"  fill="#060402"/>
    <circle cx="100" cy="75" r="4"  fill="#020100"/>
    <ellipse cx="103" cy="70" rx="3.5" ry="2.5" fill="white"/>
    <ellipse cx="97"  cy="79" rx="2"   ry="1.5" fill="white" opacity="0.6"/>
    <circle  cx="105" cy="72" r="1.2"            fill="white" opacity="0.9"/>
    <path d="M93,81 Q100,83 107,81" stroke="#C87830" stroke-width="0.8" fill="none" opacity="0.35"/>
  </g>
  <!-- Upper lash line right -->
  <path d="M90,75 A10,10 0 0 1 110,75" stroke="#060402" stroke-width="3.5" fill="none"/>
  <line x1="91"  y1="73" x2="87"  y2="68" stroke="#060402" stroke-width="1.5" stroke-linecap="round"/>
  <line x1="95"  y1="67" x2="93"  y2="62" stroke="#060402" stroke-width="1.5" stroke-linecap="round"/>
  <line x1="100" y1="65" x2="100" y2="60" stroke="#060402" stroke-width="1.5" stroke-linecap="round"/>
  <line x1="105" y1="67" x2="107" y2="62" stroke="#060402" stroke-width="1.5" stroke-linecap="round"/>
  <line x1="109" y1="73" x2="113" y2="68" stroke="#060402" stroke-width="1.5" stroke-linecap="round"/>
  <path d="M91,78 A10,8 0 0 0 109,78" stroke="#200A04" stroke-width="1.1" fill="none"/>

  <!-- ══════════════════════════════════ -->
  <!--  NOSE                             -->
  <!-- ══════════════════════════════════ -->

  <ellipse cx="80" cy="101" rx="15" ry="11" fill="#1A1A1A"/>
  <!-- Nostril curves -->
  <path d="M68 101 Q73 106 78 101" stroke="#0A0A0A" stroke-width="2"   fill="none" stroke-linecap="round"/>
  <path d="M82 101 Q87 106 92 101" stroke="#0A0A0A" stroke-width="2"   fill="none" stroke-linecap="round"/>
  <!-- Centre philtrum -->
  <line x1="80" y1="101" x2="80" y2="109" stroke="#0A0A0A" stroke-width="1.8"/>
  <!-- Wet nose highlights -->
  <ellipse cx="74" cy="97"  rx="4"   ry="2.5" fill="white" opacity="0.38"/>
  <ellipse cx="70" cy="99"  rx="1.5" ry="1"   fill="white" opacity="0.22"/>

  <!-- ══════════════════════════════════ -->
  <!--  MOUTH + TONGUE                   -->
  <!-- ══════════════════════════════════ -->

  <!-- Mouth curve -->
  <path d="M65 112 Q73 117 80 115 Q87 117 95 112" stroke="#7A3C18" stroke-width="2" fill="none" stroke-linecap="round"/>
  <!-- Inner mouth -->
  <path d="M65 112 Q80 124 95 112 Q87 120 80 121 Q73 120 65 112Z" fill="#3A1808"/>
  <!-- Tongue -->
  <ellipse cx="80" cy="124" rx="11" ry="9"  fill="#E88098"/>
  <line   x1="80" y1="115"  x2="80" y2="133" stroke="#C06070" stroke-width="1.8"/>
  <ellipse cx="75" cy="120" rx="3.5" ry="2.5" fill="white"    opacity="0.28"/>
  <path d="M69 124 Q80 134 91 124" stroke="#D07080" stroke-width="1" fill="none" opacity="0.4"/>

  <!-- ══════════════════════════════════ -->
  <!--  FRONT PAWS                       -->
  <!-- ══════════════════════════════════ -->

  <!-- Left paw -->
  <ellipse cx="50"  cy="185" rx="24" ry="16" fill="#9A6028"/>
  <ellipse cx="50"  cy="183" rx="22" ry="14" fill="url(#fur-body)"/>
  <!-- Toes -->
  <circle cx="38"  cy="176" r="7" fill="#A86830"/>
  <circle cx="50"  cy="173" r="7" fill="#A86830"/>
  <circle cx="62"  cy="176" r="7" fill="#A86830"/>
  <line x1="44" y1="181" x2="44" y2="190" stroke="#7A4818" stroke-width="1.5" opacity="0.5"/>
  <line x1="56" y1="181" x2="56" y2="190" stroke="#7A4818" stroke-width="1.5" opacity="0.5"/>
  <!-- Paw fur -->
  <path d="M32,180 Q35,175 38,180" stroke="#C8904A" stroke-width="2" fill="none" stroke-linecap="round"/>
  <path d="M44,174 Q47,169 50,174" stroke="#D4A060" stroke-width="2" fill="none" stroke-linecap="round"/>
  <path d="M56,174 Q59,169 62,174" stroke="#C8904A" stroke-width="2" fill="none" stroke-linecap="round"/>

  <!-- Right paw -->
  <ellipse cx="110" cy="185" rx="24" ry="16" fill="#9A6028"/>
  <ellipse cx="110" cy="183" rx="22" ry="14" fill="url(#fur-body)"/>
  <circle cx="98"  cy="176" r="7" fill="#A86830"/>
  <circle cx="110" cy="173" r="7" fill="#A86830"/>
  <circle cx="122" cy="176" r="7" fill="#A86830"/>
  <line x1="104" y1="181" x2="104" y2="190" stroke="#7A4818" stroke-width="1.5" opacity="0.5"/>
  <line x1="116" y1="181" x2="116" y2="190" stroke="#7A4818" stroke-width="1.5" opacity="0.5"/>
  <path d="M92,180  Q95,175 98,180"   stroke="#C8904A" stroke-width="2" fill="none" stroke-linecap="round"/>
  <path d="M104,174 Q107,169 110,174" stroke="#D4A060" stroke-width="2" fill="none" stroke-linecap="round"/>
  <path d="M116,174 Q119,169 122,174" stroke="#C8904A" stroke-width="2" fill="none" stroke-linecap="round"/>

</svg>
