<svg width="1189" height="565" viewBox="0 0 1189 565" fill="none" xmlns="http://www.w3.org/2000/svg">
<path d="M83.529 457.258H152.442C143.059 481.12 124.267 494.157 100.895 494.157C71.1176 494.157 46.5699 467.682 46.5699 436.41C46.5699 407.122 71.3427 379.869 100.094 379.869C116.484 379.869 129.071 385.696 141.658 400.114H166.831C151.842 373.438 127.469 360 99.1183 360C61.7589 360 25 390.87 25 438.997C25 479.111 59.1565 514 99.1183 514C139.08 514 175.639 486.722 177.04 437.389H83.554V457.233L83.529 457.258Z" fill="#080F1F"/>
<path d="M212.498 410.136H212.097V400.114H192.73V511.212H213.499V448.843C213.499 430.206 222.682 419.153 240.674 418.576V397.125C226.085 397.929 217.502 402.751 212.498 410.161V410.136Z" fill="#080F1F"/>
<path d="M305.709 397.1C271.752 397.1 245.178 422.168 245.178 456.052C245.178 487.324 272.954 514 304.107 514C339.465 514 364.238 486.119 364.638 456.454C365.038 421.163 336.262 397.1 305.709 397.1ZM304.307 494.96C283.338 494.96 265.947 476.524 265.947 455.449C265.947 434.375 283.914 416.139 304.708 416.139C325.502 416.139 343.869 433.596 343.869 455.248C343.869 476.9 326.103 494.96 304.307 494.96Z" fill="#080F1F"/>
<path d="M474.014 472.304H473.638L450.642 400.114H437.08L414.084 472.304H413.683L389.136 400.114H366.94L408.303 511.212H419.689L443.661 436.41H444.061L468.033 511.212H479.619L520.582 400.114H498.386L474.014 472.304Z" fill="#080F1F"/>
<path d="M567.85 362.813H547.081V400.114H532.092V419.179H547.081V511.212H567.85V419.179H586.042V400.114H567.85V362.813Z" fill="#080F1F"/>
<path d="M651.953 397.1C638.165 397.1 627.581 402.123 620.999 411.945H620.599V362.813H599.83V511.212H620.599V451.054C620.599 429.402 631.584 416.164 649.751 416.164C667.918 416.164 677.326 426.99 677.326 450.853V511.212H698.096V444.448C698.096 413.979 678.327 397.125 651.953 397.125V397.1Z" fill="#080F1F"/>
<path d="M770.888 362.813H727.948V511.212H749.518V452.661H771.088C803.042 452.661 822.835 436.812 822.835 407.75C822.835 378.688 802.667 362.838 770.888 362.838V362.813ZM770.888 432.793H749.518V382.657H770.687C789.455 382.657 801.241 391.473 801.241 407.725C801.241 423.976 789.855 432.793 770.888 432.793Z" fill="#080F1F"/>
<path d="M882.591 397.1C848.634 397.1 822.06 422.168 822.06 456.052C822.06 487.324 849.835 514 880.989 514C916.347 514 941.12 486.119 941.52 456.454C941.92 421.163 913.144 397.1 882.591 397.1ZM881.189 494.96C860.22 494.96 842.829 476.524 842.829 455.449C842.829 434.375 860.821 416.139 881.59 416.139C902.359 416.139 920.751 433.596 920.751 455.248C920.751 476.9 902.984 494.96 881.189 494.96Z" fill="#080F1F"/>
<path d="M979.38 362.813H958.611V387.278H979.38V362.813Z" fill="#080F1F"/>
<path d="M979.38 400.114H958.611V511.212H979.38V400.114Z" fill="#080F1F"/>
<path d="M1054.02 397.1C1041.24 397.1 1029.85 401.32 1021.67 411.945H1021.27V400.114H1001.9V511.212H1022.67V450.451C1022.67 429.603 1033.65 416.164 1051.82 416.164C1069.99 416.164 1079.4 427.191 1079.4 450.652V511.212H1100.17V444.649C1100.17 413.979 1080.6 397.125 1054.02 397.125V397.1Z" fill="#080F1F"/>
<path d="M1145.83 400.114V362.813H1125.06V400.114H1110.08V419.179H1125.06V511.212H1145.83V419.179H1164V400.114H1145.83Z" fill="#080F1F"/>
<path d="M454 119.751C454 123.922 456.212 127.8 459.789 129.951L511.827 160.877C515.86 163.288 520.966 163.06 524.771 160.29L547.798 143.703L454 88.1076V119.751Z" fill="#080F1F"/>
<path d="M511.827 201.188L459.789 232.147C456.212 234.298 454 238.176 454 242.347V273.99L547.798 218.362L524.771 201.775C520.966 199.005 515.86 198.809 511.827 201.188Z" fill="#080F1F"/>
<path d="M734.549 179.094L610.373 107.66L516.575 52V83.643C516.575 87.8143 518.787 91.6923 522.365 93.8431L574.402 124.769C578.435 127.181 583.541 126.953 587.347 124.183L610.243 107.66V180.039C610.048 179.745 609.788 179.485 609.463 179.289L547.798 143.67V218.297L609.463 183.558C609.821 183.363 610.081 183.102 610.276 182.809V254.34L587.379 237.817C583.541 235.047 578.468 234.852 574.435 237.231L522.397 268.157C518.82 270.308 516.608 274.186 516.608 278.357V310L610.406 254.372L734.549 183.949C736.467 182.874 736.5 180.104 734.549 178.996V179.094ZM662.964 152.502V210.313L612.292 181.049L662.964 152.502Z" fill="#080F1F"/>
</svg>
