<svg width="1458" height="230" viewBox="0 0 1458 230" fill="none" xmlns="http://www.w3.org/2000/svg">
<path d="M358.473 135.389H426.051C416.849 158.788 398.421 171.571 375.502 171.571C346.302 171.571 322.23 145.611 322.23 114.946C322.23 86.2265 346.523 59.5023 374.717 59.5023C390.789 59.5023 403.132 65.2166 415.475 79.3545H440.16C425.462 53.1969 401.562 40.0196 373.76 40.0196C337.125 40.0196 301.078 70.2905 301.078 117.483C301.078 156.818 334.573 191.029 373.76 191.029C412.947 191.029 448.797 164.281 450.171 115.906H358.497V135.364L358.473 135.389Z" fill="#080F1F"/>
<path d="M484.942 89.1821H484.549V79.3545H465.557V188.295H485.923V127.138C485.923 108.862 494.929 98.0245 512.572 97.458V76.4235C498.266 77.2117 489.849 81.9407 484.942 89.2068V89.1821Z" fill="#080F1F"/>
<path d="M576.346 76.3989C543.048 76.3989 516.988 100.98 516.988 134.207C516.988 164.872 544.226 191.029 574.776 191.029C609.448 191.029 633.74 163.69 634.133 134.601C634.526 99.9949 606.307 76.3989 576.346 76.3989ZM574.972 172.359C554.409 172.359 537.355 154.281 537.355 133.616C537.355 112.951 554.973 95.0688 575.364 95.0688C595.756 95.0688 613.766 112.187 613.766 133.419C613.766 154.65 596.344 172.359 574.972 172.359Z" fill="#080F1F"/>
<path d="M741.389 150.143H741.021L718.47 79.3545H705.171L682.62 150.143H682.228L658.156 79.3545H636.39L676.952 188.295H688.117L711.624 114.946H712.017L735.524 188.295H746.885L787.054 79.3545H765.289L741.389 150.143Z" fill="#080F1F"/>
<path d="M833.406 42.7782H813.04V79.3545H798.341V98.0491H813.04V188.295H833.406V98.0491H851.245V79.3545H833.406V42.7782Z" fill="#080F1F"/>
<path d="M915.879 76.3989C902.358 76.3989 891.979 81.325 885.525 90.9555H885.132V42.7782H864.766V188.295H885.132V129.305C885.132 108.074 895.905 95.0934 913.719 95.0934C931.534 95.0934 940.76 105.709 940.76 129.108V188.295H961.127V122.827C961.127 92.9506 941.742 76.4235 915.879 76.4235V76.3989Z" fill="#080F1F"/>
<path d="M1032.51 42.7782H990.4V188.295H1011.55V130.882H1032.7C1064.04 130.882 1083.45 115.34 1083.45 86.8422C1083.45 58.3447 1063.67 42.8028 1032.51 42.8028V42.7782ZM1032.51 111.399H1011.55V62.2363H1032.31C1050.71 62.2363 1062.27 70.8816 1062.27 86.8176C1062.27 102.754 1051.11 111.399 1032.51 111.399Z" fill="#080F1F"/>
<path d="M1142.05 76.3989C1108.75 76.3989 1082.69 100.98 1082.69 134.207C1082.69 164.872 1109.93 191.029 1140.48 191.029C1175.15 191.029 1199.44 163.69 1199.83 134.601C1200.23 99.9949 1172.01 76.3989 1142.05 76.3989ZM1140.67 172.359C1120.11 172.359 1103.05 154.281 1103.05 133.616C1103.05 112.951 1120.7 95.0688 1141.06 95.0688C1161.43 95.0688 1179.47 112.187 1179.47 133.419C1179.47 154.65 1162.04 172.359 1140.67 172.359Z" fill="#080F1F"/>
<path d="M1236.96 42.7782H1216.59V66.7683H1236.96V42.7782Z" fill="#080F1F"/>
<path d="M1236.96 79.3545H1216.59V188.295H1236.96V79.3545Z" fill="#080F1F"/>
<path d="M1310.16 76.3989C1297.62 76.3989 1286.45 80.5368 1278.43 90.9555H1278.04V79.3545H1259.04V188.295H1279.41V128.714C1279.41 108.271 1290.18 95.0935 1308 95.0935C1325.81 95.0935 1335.04 105.906 1335.04 128.911V188.295H1355.4V123.024C1355.4 92.9506 1336.21 76.4235 1310.16 76.4235V76.3989Z" fill="#080F1F"/>
<path d="M1400.19 79.3545V42.7782H1379.82V79.3545H1365.12V98.0491H1379.82V188.295H1400.19V98.0491H1418V79.3545H1400.19Z" fill="#080F1F"/>
<path d="M41 69.2069C41 72.3596 42.6686 75.2906 45.3678 76.9163L84.6286 100.291C87.6713 102.113 91.5238 101.941 94.3947 99.8473L111.768 87.3103L41 45.2906V69.2069Z" fill="#080F1F"/>
<path d="M84.6286 130.759L45.3678 154.158C42.6686 155.783 41 158.714 41 161.867V185.783L111.768 143.739L94.3947 131.202C91.5238 129.108 87.6713 128.961 84.6286 130.759Z" fill="#080F1F"/>
<path d="M252.665 114.059L158.979 60.069L88.2111 18V41.9163C88.2111 45.069 89.8797 48 92.5789 49.6256L131.84 73C134.882 74.8227 138.735 74.6502 141.606 72.5566L158.881 60.069V114.773C158.733 114.552 158.537 114.355 158.292 114.207L111.768 87.2857V143.69L158.292 117.433C158.562 117.286 158.758 117.089 158.905 116.867V170.931L141.63 158.443C138.735 156.35 134.907 156.202 131.864 158L92.6035 181.374C89.9043 183 88.2357 185.931 88.2357 189.084V213L159.003 170.956L252.665 117.729C254.113 116.916 254.137 114.823 252.665 113.985V114.059ZM198.657 93.9606V137.655L160.427 115.537L198.657 93.9606Z" fill="#080F1F"/>
</svg>
