<?xml version="1.0" standalone="no"?>
<!DOCTYPE svg PUBLIC "-//W3C//DTD SVG 1.1//EN" "http://www.w3.org/Graphics/SVG/1.1/DTD/svg11.dtd">
<svg xmlns="http://www.w3.org/2000/svg" width="28" height="28" viewBox="0 0 28 28" fill="none">
<path d="M14.0001 2.34448e-10C6.2681 -4.4265e-05 5.31185e-05 6.26793 2.34468e-10 13.9999C-4.4265e-05 21.732 6.26803 28 14.0001 28C21.7321 27.9999 28 21.7319 28 13.9999C27.9999 6.268 21.732 5.31185e-05 14.0001 2.34448e-10ZM19.5889 8.94619C19.9454 8.94619 20.3019 9.08273 20.575 9.35589C21.1213 9.90221 21.1213 10.7818 20.575 11.3281L13.2605 18.6427C13.0215 18.8817 12.7187 19.0161 12.4079 19.046C12.0083 19.0844 11.5956 18.95 11.2882 18.6427L7.42514 14.7797C6.87882 14.2334 6.87883 13.3537 7.42514 12.8074C7.97146 12.2611 8.85121 12.2611 9.39754 12.8074L12.2744 15.6843L18.6028 9.35589C18.8759 9.08273 19.2324 8.94619 19.5889 8.94619Z" fill="#A4E322"/>
</svg>