<?xml version="1.0" standalone="no"?>
<!DOCTYPE svg PUBLIC "-//W3C//DTD SVG 1.1//EN" "http://www.w3.org/Graphics/SVG/1.1/DTD/svg11.dtd">
<svg xmlns="http://www.w3.org/2000/svg" width="88" height="88" viewBox="0 0 88 88" fill="none">
<circle cx="44" cy="44" r="44" fill="#080F1F"/>
<path d="M33.5789 62H27.8947C27.3922 62 26.9103 61.8004 26.555 61.445C26.1996 61.0897 26 60.6078 26 60.1053V44.9474C26 44.4449 26.1996 43.9629 26.555 43.6076C26.9103 43.2523 27.3922 43.0526 27.8947 43.0526H33.5789C34.0815 43.0526 34.5634 43.2523 34.9187 43.6076C35.2741 43.9629 35.4737 44.4449 35.4737 44.9474V60.1053C35.4737 60.6078 35.2741 61.0897 34.9187 61.445C34.5634 61.8004 34.0815 62 33.5789 62ZM46.8421 62H41.1579C40.6554 62 40.1734 61.8004 39.8181 61.445C39.4628 61.0897 39.2632 60.6078 39.2632 60.1053V27.8947C39.2632 27.3922 39.4628 26.9103 39.8181 26.555C40.1734 26.1996 40.6554 26 41.1579 26H46.8421C47.3446 26 47.8266 26.1996 48.1819 26.555C48.5372 26.9103 48.7368 27.3922 48.7368 27.8947V60.1053C48.7368 60.6078 48.5372 61.0897 48.1819 61.445C47.8266 61.8004 47.3446 62 46.8421 62ZM60.1053 62H54.4211C53.9185 62 53.4366 61.8004 53.0813 61.445C52.7259 61.0897 52.5263 60.6078 52.5263 60.1053V39.2632C52.5263 38.7606 52.7259 38.2787 53.0813 37.9234C53.4366 37.568 53.9185 37.3684 54.4211 37.3684H60.1053C60.6078 37.3684 61.0897 37.568 61.445 37.9234C61.8004 38.2787 62 38.7606 62 39.2632V60.1053C62 60.6078 61.8004 61.0897 61.445 61.445C61.0897 61.8004 60.6078 62 60.1053 62Z" fill="white"/>
</svg>