<?xml version="1.0" standalone="no"?>
<!DOCTYPE svg PUBLIC "-//W3C//DTD SVG 1.1//EN" "http://www.w3.org/Graphics/SVG/1.1/DTD/svg11.dtd">
<svg xmlns="http://www.w3.org/2000/svg" width="104" height="104" viewBox="0 0 104 104" fill="none">
<circle cx="52" cy="52" r="52" fill="#0C50D5"/>
<path d="M51.6019 26C37.4355 26 26 37.4355 26 51.6019C26 65.7683 37.4355 77.2038 51.6019 77.2038C65.7683 77.2038 77.2038 65.7683 77.2038 51.6019C77.2038 37.4355 65.7683 26 51.6019 26ZM60.1359 63.5495C59.2825 63.5495 58.4291 63.2081 57.7464 62.5254L49.2124 53.9914C48.5297 53.3087 48.1883 52.4553 48.1883 51.6019V36.2408C48.1883 34.3633 49.7244 32.8272 51.6019 32.8272C53.4794 32.8272 55.0155 34.3633 55.0155 36.2408V50.2365L62.5254 57.7464C63.2081 58.4291 63.5495 59.4532 63.5495 60.1359C63.5495 62.3547 61.672 63.5495 60.1359 63.5495Z" fill="white"/>
</svg>