<?xml version="1.0" standalone="no"?>
<!DOCTYPE svg PUBLIC "-//W3C//DTD SVG 1.1//EN" "http://www.w3.org/Graphics/SVG/1.1/DTD/svg11.dtd">
<svg xmlns="http://www.w3.org/2000/svg" width="88" height="88" viewBox="0 0 88 88" fill="none">
<circle cx="44" cy="44" r="44" fill="#95CA25"/>
<path d="M57.75 64C58.44 64 59 63.44 59 62.75V25.25C59 24.56 58.44 24 57.75 24H30.25C29.56 24 29 24.56 29 25.25V62.75C29 63.44 29.56 64 30.25 64H32.0175C32.3375 64 32.6575 63.8775 32.9025 63.635L37.75 58.785L42.5975 63.6325C42.8425 63.8775 43.1625 64 43.4825 64H44.5175C44.8375 64 45.1575 63.8775 45.4025 63.635L50.25 58.7875L55.0975 63.635C55.3425 63.8775 55.6625 64 55.9825 64H57.75Z" fill="white"/>
</svg>