<?xml version="1.0" standalone="no"?>
<!DOCTYPE svg PUBLIC "-//W3C//DTD SVG 1.1//EN" "http://www.w3.org/Graphics/SVG/1.1/DTD/svg11.dtd">
<svg xmlns="http://www.w3.org/2000/svg" width="151" height="151" viewBox="0 0 151 151" fill="none">
<circle cx="75.5" cy="75.5" r="75.5" fill="#0C50D5"/>
<path d="M101.891 68.941C102.363 68.9228 102.825 69.0825 103.186 69.3873L107.951 74.153V74.1539C108.304 74.5085 108.502 74.9879 108.502 75.4879C108.502 75.9877 108.304 76.4673 107.952 76.8219L103.153 81.6207L103.141 81.6354C102.971 81.8335 102.762 81.9944 102.527 82.108C102.293 82.2216 102.037 82.2854 101.776 82.2955C101.516 82.3056 101.256 82.2617 101.013 82.1666C100.77 82.0715 100.549 81.9273 100.364 81.7428C100.18 81.5583 100.036 81.3372 99.9404 81.0944C99.8454 80.8517 99.8015 80.5921 99.8115 80.3317C99.8216 80.071 99.8854 79.8145 99.999 79.5797C100.113 79.345 100.274 79.1361 100.472 78.9664L100.486 78.9537L100.5 78.9401L101.194 78.2467L102.048 77.3932H77.3926V106.607C77.3926 107.109 77.1938 107.591 76.8389 107.946C76.4839 108.301 76.002 108.5 75.5 108.5H44.3926C43.8908 108.5 43.4096 108.301 43.0547 107.946C42.6997 107.591 42.5 107.109 42.5 106.607C42.5 106.105 42.6998 105.624 43.0547 105.269C43.4096 104.914 43.8907 104.715 44.3926 104.714H73.6074V75.4762C73.6074 75.037 73.7602 74.6138 74.0361 74.277L74.1611 74.1373C74.5161 73.7823 74.998 73.5836 75.5 73.5836H102.048L100.52 72.0553C100.214 71.6944 100.054 71.2321 100.072 70.7594C100.091 70.2833 100.288 69.8317 100.625 69.4948C100.962 69.1577 101.414 68.9595 101.891 68.941Z" fill="white" stroke="#0C50D5"/>
<path d="M106.607 87.4642H85.0714C83.7499 87.4642 82.6786 88.5356 82.6786 89.8571V106.607C82.6786 107.929 83.7499 109 85.0714 109H106.607C107.929 109 109 107.929 109 106.607V89.8571C109 88.5356 107.929 87.4642 106.607 87.4642Z" fill="white"/>
<path d="M65.9286 80.2858H44.3929C43.0713 80.2858 42 81.3571 42 82.6786V97.0358C42 98.3573 43.0713 99.4286 44.3929 99.4286H65.9286C67.2501 99.4286 68.3214 98.3573 68.3214 97.0358V82.6786C68.3214 81.3571 67.2501 80.2858 65.9286 80.2858Z" fill="white"/>
<path d="M65.9286 42H44.3929C43.0713 42 42 43.0713 42 44.3929V70.7143C42 72.0358 43.0713 73.1071 44.3929 73.1071H65.9286C67.2501 73.1071 68.3214 72.0358 68.3214 70.7143V44.3929C68.3214 43.0713 67.2501 42 65.9286 42Z" fill="white"/>
<path d="M106.607 42H77.8929C76.5713 42 75.5 43.0713 75.5 44.3929V61.1429C75.5 62.4644 76.5713 63.5357 77.8929 63.5357H106.607C107.929 63.5357 109 62.4644 109 61.1429V44.3929C109 43.0713 107.929 42 106.607 42Z" fill="white"/>
</svg>