<?xml version="1.0" standalone="no"?>
<!DOCTYPE svg PUBLIC "-//W3C//DTD SVG 1.1//EN" "http://www.w3.org/Graphics/SVG/1.1/DTD/svg11.dtd">
<svg xmlns="http://www.w3.org/2000/svg" width="104" height="104" viewBox="0 0 104 104" fill="none">
<circle cx="52" cy="52" r="52" fill="#0C50D5"/>
<path d="M78 52V32.8158L73.4861 37.3262C68.7994 30.4901 60.9366 26 52.0158 26C37.6453 26 26 37.6382 26 52C26 66.3618 37.6453 78 52.0158 78C64.842 78 75.4897 68.7252 77.632 56.5217H63.594C61.7797 61.1467 57.2793 64.4348 52.0158 64.4348C45.1552 64.4348 39.5735 58.8565 39.5735 52C39.5735 45.1435 45.1552 39.5652 52.0158 39.5652C57.2092 39.5652 61.65 42.7696 63.5081 47.2981L58.8026 52H78Z" fill="white"/>
</svg>