<?xml version="1.0" standalone="no"?>
<!DOCTYPE svg PUBLIC "-//W3C//DTD SVG 1.1//EN" "http://www.w3.org/Graphics/SVG/1.1/DTD/svg11.dtd">
<svg xmlns="http://www.w3.org/2000/svg" width="150" height="150" viewBox="0 0 150 150" fill="none">
<circle cx="75" cy="75" r="75" fill="#0C50D5"/>
<path d="M107.308 63.2606C107.308 45.5532 93.077 31.1538 75.577 31.1538C58.077 31.1538 43.8462 45.5532 43.8462 63.2606C43.8462 66.9675 44.4808 70.5284 45.625 73.8461C44.4808 77.1638 43.8462 80.7248 43.8462 84.4316C43.8462 102.139 58.077 116.538 75.577 116.538C93.077 116.538 107.308 102.139 107.308 84.4316C107.308 80.7248 106.673 77.1638 105.529 73.8461C106.673 70.5284 107.308 66.9675 107.308 63.2606ZM75.577 108.745C62.3173 108.745 51.5385 97.8386 51.5385 84.4219C51.5385 84.3441 51.5385 84.2662 51.5385 84.1884C57.3654 91.0281 65.9712 95.3674 75.5673 95.3674C85.1635 95.3674 93.7789 91.0281 99.5962 84.1884C99.5962 84.2662 99.5962 84.3441 99.5962 84.4219C99.5962 97.8386 88.8173 108.745 75.5577 108.745H75.577ZM53.9327 73.8461C57.827 65.7221 66.0673 60.1083 75.577 60.1083C85.0866 60.1083 93.327 65.7221 97.2212 73.8461C93.327 81.9701 85.0866 87.5839 75.577 87.5839C66.0673 87.5839 57.827 81.9701 53.9327 73.8461ZM99.6058 63.4941C93.7789 56.6544 85.1731 52.3151 75.577 52.3151C65.9808 52.3151 57.3654 56.6544 51.5481 63.4941C51.5481 63.4163 51.5481 63.3384 51.5481 63.2606C51.5481 49.8439 62.327 38.9373 75.5866 38.9373C88.8462 38.9373 99.625 49.8439 99.625 63.2606C99.625 63.3384 99.625 63.4163 99.625 63.4941H99.6058Z" fill="white"/>
</svg>