<svg xmlns="http://www.w3.org/2000/svg" width="151" height="151" viewBox="0 0 151 151" fill="none"><circle cx="75.5" cy="75.5" r="75.5" fill="#080F1F"></circle><path d="M111.336 50.1921C111.969 49.828 112.482 48.9422 112.483 48.2122L112.487 43.5775C112.488 42.8481 111.975 41.9611 111.343 41.5953L107.323 39.2739C107.006 39.0911 106.59 39 106.175 39C105.761 39 105.347 39.0908 105.031 39.2722L101.007 41.5866C100.374 41.9499 99.8603 42.8366 99.86 43.5654L99.8589 44.7411H82.0577L82.0586 43.5775C82.0595 42.8481 81.5473 41.9611 80.9148 41.5953L76.895 39.2739C76.5779 39.0911 76.1624 39 75.7469 39C75.333 39 74.9189 39.0908 74.6027 39.2722L70.5785 41.5866C69.9459 41.9499 69.4323 42.8366 69.432 43.5654L69.4309 44.7411H51.6296L51.6305 43.5775C51.6314 42.8481 51.1192 41.9611 50.4868 41.5953L46.4669 39.2739C46.1498 39.0911 45.7344 39 45.3189 39C44.9049 39 44.4908 39.0908 44.1746 39.2722L40.1505 41.5866C39.5178 41.9499 39.0042 42.8366 39.0039 43.5654L39 48.2007C38.9997 48.9301 39.5116 49.8173 40.1437 50.1823L44.1645 52.5037L44.167 52.5048V69.1303L40.1505 71.4406C39.5178 71.8039 39.0042 72.6905 39.0039 73.4194L39 78.0546C38.9997 78.7841 39.5116 79.6713 40.1437 80.0363L44.1645 82.3577L44.167 82.3588V98.9843L40.1505 101.295C39.5178 101.658 39.0042 102.544 39.0039 103.273L39 107.909C38.9997 108.638 39.5116 109.525 40.1437 109.89L44.1645 112.212C44.4813 112.395 44.897 112.487 45.3125 112.487C45.7262 112.487 46.1397 112.396 46.4556 112.214L50.48 109.9C51.1127 109.536 51.6263 108.65 51.6271 107.92L51.628 106.746H69.4292L69.4281 107.909C69.4278 108.638 69.9397 109.525 70.5718 109.89L74.5926 112.212C74.9094 112.395 75.3251 112.487 75.7405 112.487C76.1543 112.487 76.5677 112.396 76.8837 112.214L80.9081 109.9C81.5408 109.536 82.0544 108.65 82.0552 107.92L82.0561 106.746H99.8573L99.8561 107.909C99.8559 108.638 100.368 109.525 101 109.89L105.021 112.212C105.337 112.395 105.753 112.487 106.169 112.487C106.582 112.487 106.996 112.396 107.312 112.214L111.336 109.9C111.969 109.536 112.482 108.65 112.483 107.92L112.487 103.285C112.488 102.556 111.975 101.669 111.343 101.303L107.323 98.9818C107.322 98.9812 107.321 98.981 107.32 98.9801V82.356L111.336 80.0461C111.969 79.682 112.482 78.7961 112.483 78.0661L112.487 73.4314C112.488 72.702 111.975 71.8151 111.343 71.4492L107.323 69.1279C107.322 69.1273 107.321 69.127 107.32 69.1261V52.5021L111.336 50.1921ZM74.5951 98.9843L70.5785 101.295C69.9459 101.658 69.4323 102.544 69.432 103.273L69.4309 104.449H51.6296L51.6305 103.285C51.6314 102.556 51.1192 101.669 50.4868 101.303L46.4669 98.9818C46.4657 98.9812 46.4646 98.981 46.4635 98.9801V82.356L50.48 80.0461C51.1127 79.682 51.6263 78.7961 51.6271 78.0661L51.628 76.8916H62.5415L62.5387 80.3668C62.5381 81.8254 63.6084 83.599 64.9305 84.3295L73.337 88.9726C73.704 89.1756 74.1368 89.3163 74.5951 89.4068V98.9843ZM74.5951 62.0818C74.1449 62.1715 73.7199 62.3105 73.3583 62.5092L64.9442 67.138C63.6211 67.8647 62.5471 69.6374 62.5465 71.0958L62.5435 74.5951H51.6296L51.6305 73.4314C51.6314 72.702 51.1192 71.8151 50.4868 71.4492L46.4669 69.1279C46.4657 69.1273 46.4646 69.127 46.4635 69.1261V52.5021L50.48 50.1921C51.1127 49.828 51.6263 48.9422 51.6271 48.2122L51.628 47.0376H69.4292L69.4281 48.2007C69.4278 48.9301 69.9397 49.8173 70.5718 50.1823L74.5926 52.5037L74.5951 52.5048V62.0818ZM105.023 98.9843L101.007 101.295C100.374 101.658 99.8603 102.544 99.86 103.273L99.8589 104.449H82.0577L82.0586 103.285C82.0595 102.556 81.5473 101.669 80.9148 101.303L76.895 98.9818C76.8938 98.9812 76.8927 98.981 76.8916 98.9801V89.4052C77.3418 89.3152 77.7665 89.1759 78.1278 88.9774L86.5422 84.3489C87.8656 83.6209 88.9396 81.8492 88.9407 80.3892L88.9435 76.8916H99.8573L99.8561 78.0546C99.8559 78.7841 100.368 79.6713 101 80.0363L105.021 82.3577L105.023 82.3588V98.9843ZM105.023 69.1303L101.007 71.4406C100.374 71.8039 99.8603 72.6905 99.86 73.4194L99.8589 74.5951H88.9452L88.948 71.1196C88.9496 69.6607 87.8788 67.8863 86.5565 67.1554L78.1513 62.5123C77.7838 62.3099 77.3505 62.1692 76.8916 62.0792V52.5021L80.9081 50.1921C81.5408 49.828 82.0544 48.9422 82.0552 48.2122L82.0561 47.0376H99.8573L99.8561 48.2007C99.8559 48.9301 100.368 49.8173 101 50.1823L105.021 52.5037L105.023 52.5048V69.1303Z" fill="white"></path></svg>