<?xml version="1.0" standalone="no"?>
<!DOCTYPE svg PUBLIC "-//W3C//DTD SVG 1.1//EN" "http://www.w3.org/Graphics/SVG/1.1/DTD/svg11.dtd">
<svg xmlns="http://www.w3.org/2000/svg" width="150" height="150" viewBox="0 0 150 150" fill="none">
<circle cx="75" cy="75" r="75" fill="#0C50D5"/>
<path d="M75 40.3845C94.1172 40.3845 109.615 55.8828 109.615 74.9999C90.4983 74.9999 75 59.5017 75 40.3845ZM75 40.3845C55.8829 40.3845 40.3846 55.8828 40.3846 74.9999C59.5018 74.9999 75 59.5017 75 40.3845ZM40.3846 74.9999C40.3846 94.117 55.8829 109.615 75 109.615C75 90.4982 59.5018 74.9999 40.3846 74.9999ZM75 109.615C94.1172 109.615 109.615 94.117 109.615 74.9999C90.4983 74.9999 75 90.4982 75 109.615Z" fill="white"/>
</svg>