<?xml version="1.0" standalone="no"?>
<!DOCTYPE svg PUBLIC "-//W3C//DTD SVG 1.1//EN" "http://www.w3.org/Graphics/SVG/1.1/DTD/svg11.dtd">
<svg xmlns="http://www.w3.org/2000/svg" width="88" height="88" viewBox="0 0 88 88" fill="none">
<circle cx="44" cy="44" r="44" fill="#F6621C"/>
<path d="M26 29.125C26 28.504 26.504 28 27.125 28H60.875C61.496 28 62 28.504 62 29.125V38.125C62 38.746 61.496 39.25 60.875 39.25H27.125C26.504 39.25 26 38.746 26 38.125V29.125Z" fill="white"/>
<path d="M41.75 44.875C41.75 44.254 42.254 43.75 42.875 43.75H60.875C61.496 43.75 62 44.254 62 44.875V62.875C62 63.496 61.496 64 60.875 64H42.875C42.254 64 41.75 63.496 41.75 62.875V44.875Z" fill="white"/>
<path d="M26 44.875C26 44.254 26.504 43.75 27.125 43.75H36.125C36.746 43.75 37.25 44.254 37.25 44.875V62.875C37.25 63.496 36.746 64 36.125 64H27.125C26.504 64 26 63.496 26 62.875V44.875Z" fill="white"/>
</svg>