<?xml version="1.0" standalone="no"?>
<!DOCTYPE svg PUBLIC "-//W3C//DTD SVG 1.1//EN" "http://www.w3.org/Graphics/SVG/1.1/DTD/svg11.dtd">
<svg xmlns="http://www.w3.org/2000/svg" width="151" height="151" viewBox="0 0 151 151" fill="none">
<circle cx="75.5" cy="75.5" r="75.5" fill="#95D316"/>
<path d="M80.0625 39C66.6663 39 55.2141 47.2567 50.4717 58.9515C55.4962 55.0397 61.7952 52.6875 68.6563 52.6875C85.0349 52.6875 98.3125 65.9651 98.3125 82.3438C98.3125 89.2048 95.9603 95.5038 92.0486 100.528C103.743 95.7859 112 84.3337 112 70.9375C112 53.2987 97.701 39 80.0625 39Z" fill="white"/>
<path d="M68.6563 57.25C57.4681 57.25 47.9984 64.5758 44.7608 74.6894C48.3517 72.3318 52.6332 70.9375 57.2501 70.9375C69.849 70.9375 80.0626 81.1511 80.0626 93.75C80.0626 98.3665 78.6682 102.648 76.3107 106.239C86.424 103.001 93.7501 93.5317 93.7501 82.3438C93.7501 68.4847 82.5151 57.25 68.6563 57.25Z" fill="white"/>
<path d="M70.1547 80.8453C77.2818 87.9724 77.2818 99.5277 70.1547 106.655C63.0276 113.782 51.4723 113.782 44.3453 106.655C37.2182 99.5276 37.2182 87.9723 44.3453 80.8453C51.4724 73.7182 63.0277 73.7182 70.1547 80.8453Z" fill="white"/>
</svg>