<?xml version="1.0" standalone="no"?>
<!DOCTYPE svg PUBLIC "-//W3C//DTD SVG 1.1//EN" "http://www.w3.org/Graphics/SVG/1.1/DTD/svg11.dtd">
<svg xmlns="http://www.w3.org/2000/svg" width="60" height="60" viewBox="0 0 60 60" fill="none">
<circle cx="30" cy="30" r="30" fill="#F6621C"/>
<path fill-rule="evenodd" clip-rule="evenodd" d="M41.7279 38.3625L37.0816 40.5717L32.516 42.7426C32.33 42.8311 32.1289 42.8165 31.9562 42.7034C31.7834 42.5902 31.6869 42.4077 31.6869 42.196V30.608C31.6869 29.8862 32.0704 29.2693 32.7056 28.9682L37.0825 26.8877L42.371 24.3728C42.557 24.2843 42.7581 24.2979 42.9308 24.412C43.1036 24.5261 43.2001 24.7077 43.2001 24.9203V35.9936C43.1993 37.0348 42.6456 37.9264 41.7279 38.3625ZM42.154 21.7803L37.0816 24.3928L32.0208 26.9999C31.2271 27.4087 30.3741 27.4087 29.5803 26.9999L24.5195 24.3928L19.4472 21.7803C19.2444 21.6754 19.1239 21.4755 19.1239 21.241C19.1239 21.0074 19.2444 20.8076 19.4472 20.7026L24.5195 18.0901L29.4935 15.5278C30.3431 15.0907 31.2581 15.0907 32.1085 15.5278L37.0816 18.0901L42.154 20.7026C42.3568 20.8076 42.4773 21.0074 42.4773 21.241C42.4764 21.4755 42.3568 21.6754 42.154 21.7803ZM24.5186 26.8868L28.8956 28.9673C29.5307 29.2693 29.9143 29.8871 29.9143 30.6071V42.1951C29.9143 42.4068 29.8177 42.5884 29.645 42.7025C29.4723 42.8165 29.2712 42.8311 29.0852 42.7417L24.5186 40.5708L19.8724 38.3616C18.9538 37.9254 18.4001 37.0339 18.4001 35.9927V24.9194C18.4001 24.7077 18.4967 24.5252 18.6703 24.4111C18.8431 24.297 19.0442 24.2833 19.2302 24.3719L24.5186 26.8868Z" fill="white"/>
</svg>